<?xml version="1.0" encoding="utf-8" standalone="no"?>
<!DOCTYPE svg PUBLIC "-//W3C//DTD SVG 1.1//EN"
  "http://www.w3.org/Graphics/SVG/1.1/DTD/svg11.dtd">
<!-- Created with matplotlib (https://matplotlib.org/) -->
<svg height="360pt" version="1.1" viewBox="0 0 720 360" width="720pt" xmlns="http://www.w3.org/2000/svg" xmlns:xlink="http://www.w3.org/1999/xlink">
 <metadata>
  <rdf:RDF xmlns:cc="http://creativecommons.org/ns#" xmlns:dc="http://purl.org/dc/elements/1.1/" xmlns:rdf="http://www.w3.org/1999/02/22-rdf-syntax-ns#">
   <cc:Work>
    <dc:type rdf:resource="http://purl.org/dc/dcmitype/StillImage"/>
    <dc:date>2020-12-21T15:15:50.188128</dc:date>
    <dc:format>image/svg+xml</dc:format>
    <dc:creator>
     <cc:Agent>
      <dc:title>Matplotlib v3.3.0, https://matplotlib.org/</dc:title>
     </cc:Agent>
    </dc:creator>
   </cc:Work>
  </rdf:RDF>
 </metadata>
 <defs>
  <style type="text/css">*{stroke-linecap:butt;stroke-linejoin:round;}</style>
 </defs>
 <g id="figure_1">
  <g id="patch_1">
   <path d="M 0 360 
L 720 360 
L 720 0 
L 0 0 
z
" style="fill:#ffffff;"/>
  </g>
  <g id="axes_1">
   <g id="patch_2">
    <path d="M 90 320.4 
L 648 320.4 
L 648 43.2 
L 90 43.2 
z
" style="fill:#ffffff;"/>
   </g>
   <g id="matplotlib.axis_1">
    <g id="xtick_1">
     <g id="line2d_1">
      <path clip-path="url(#p91e18f747a)" d="M 90 320.4 
L 90 43.2 
" style="fill:none;stroke:#b0b0b0;stroke-dasharray:2.96,1.28;stroke-dashoffset:0;stroke-width:0.8;"/>
     </g>
     <g id="line2d_2">
      <defs>
       <path d="M 0 0 
L 0 3.5 
" id="m40ab662899" style="stroke:#000000;stroke-width:0.8;"/>
      </defs>
      <g>
       <use style="stroke:#000000;stroke-width:0.8;" x="90" xlink:href="#m40ab662899" y="320.4"/>
      </g>
     </g>
     <g id="text_1">
      <!-- 0 -->
      <g transform="translate(85.825312 336.518125)scale(0.12 -0.12)">
       <defs>
        <path d="M 46 36.53125 
Q 46 50.203125 43.4375 55.78125 
Q 40.875 61.375 34.8125 61.375 
Q 28.765625 61.375 26.171875 55.78125 
Q 23.578125 50.203125 23.578125 36.53125 
Q 23.578125 22.703125 26.171875 17.03125 
Q 28.765625 11.375 34.8125 11.375 
Q 40.828125 11.375 43.40625 17.03125 
Q 46 22.703125 46 36.53125 
z
M 64.796875 36.375 
Q 64.796875 18.265625 56.984375 8.421875 
Q 49.171875 -1.421875 34.8125 -1.421875 
Q 20.40625 -1.421875 12.59375 8.421875 
Q 4.78125 18.265625 4.78125 36.375 
Q 4.78125 54.546875 12.59375 64.375 
Q 20.40625 74.21875 34.8125 74.21875 
Q 49.171875 74.21875 56.984375 64.375 
Q 64.796875 54.546875 64.796875 36.375 
z
" id="DejaVuSans-Bold-48"/>
       </defs>
       <use xlink:href="#DejaVuSans-Bold-48"/>
      </g>
     </g>
    </g>
    <g id="xtick_2">
     <g id="line2d_3">
      <path clip-path="url(#p91e18f747a)" d="M 199.411765 320.4 
L 199.411765 43.2 
" style="fill:none;stroke:#b0b0b0;stroke-dasharray:2.96,1.28;stroke-dashoffset:0;stroke-width:0.8;"/>
     </g>
     <g id="line2d_4">
      <g>
       <use style="stroke:#000000;stroke-width:0.8;" x="199.411765" xlink:href="#m40ab662899" y="320.4"/>
      </g>
     </g>
     <g id="text_2">
      <!-- 10 -->
      <g transform="translate(191.06239 336.518125)scale(0.12 -0.12)">
       <defs>
        <path d="M 11.71875 12.984375 
L 28.328125 12.984375 
L 28.328125 60.109375 
L 11.28125 56.59375 
L 11.28125 69.390625 
L 28.21875 72.90625 
L 46.09375 72.90625 
L 46.09375 12.984375 
L 62.703125 12.984375 
L 62.703125 0 
L 11.71875 0 
z
" id="DejaVuSans-Bold-49"/>
       </defs>
       <use xlink:href="#DejaVuSans-Bold-49"/>
       <use x="69.580078" xlink:href="#DejaVuSans-Bold-48"/>
      </g>
     </g>
    </g>
    <g id="xtick_3">
     <g id="line2d_5">
      <path clip-path="url(#p91e18f747a)" d="M 308.823529 320.4 
L 308.823529 43.2 
" style="fill:none;stroke:#b0b0b0;stroke-dasharray:2.96,1.28;stroke-dashoffset:0;stroke-width:0.8;"/>
     </g>
     <g id="line2d_6">
      <g>
       <use style="stroke:#000000;stroke-width:0.8;" x="308.823529" xlink:href="#m40ab662899" y="320.4"/>
      </g>
     </g>
     <g id="text_3">
      <!-- 20 -->
      <g transform="translate(300.474154 336.518125)scale(0.12 -0.12)">
       <defs>
        <path d="M 28.8125 13.8125 
L 60.890625 13.8125 
L 60.890625 0 
L 7.90625 0 
L 7.90625 13.8125 
L 34.515625 37.3125 
Q 38.09375 40.53125 39.796875 43.609375 
Q 41.5 46.6875 41.5 50 
Q 41.5 55.125 38.0625 58.25 
Q 34.625 61.375 28.90625 61.375 
Q 24.515625 61.375 19.28125 59.5 
Q 14.0625 57.625 8.109375 53.90625 
L 8.109375 69.921875 
Q 14.453125 72.015625 20.65625 73.109375 
Q 26.859375 74.21875 32.8125 74.21875 
Q 45.90625 74.21875 53.15625 68.453125 
Q 60.40625 62.703125 60.40625 52.390625 
Q 60.40625 46.4375 57.328125 41.28125 
Q 54.25 36.140625 44.390625 27.484375 
z
" id="DejaVuSans-Bold-50"/>
       </defs>
       <use xlink:href="#DejaVuSans-Bold-50"/>
       <use x="69.580078" xlink:href="#DejaVuSans-Bold-48"/>
      </g>
     </g>
    </g>
    <g id="xtick_4">
     <g id="line2d_7">
      <path clip-path="url(#p91e18f747a)" d="M 418.235294 320.4 
L 418.235294 43.2 
" style="fill:none;stroke:#b0b0b0;stroke-dasharray:2.96,1.28;stroke-dashoffset:0;stroke-width:0.8;"/>
     </g>
     <g id="line2d_8">
      <g>
       <use style="stroke:#000000;stroke-width:0.8;" x="418.235294" xlink:href="#m40ab662899" y="320.4"/>
      </g>
     </g>
     <g id="text_4">
      <!-- 30 -->
      <g transform="translate(409.885919 336.518125)scale(0.12 -0.12)">
       <defs>
        <path d="M 46.578125 39.3125 
Q 53.953125 37.40625 57.78125 32.6875 
Q 61.625 27.984375 61.625 20.703125 
Q 61.625 9.859375 53.3125 4.21875 
Q 45.015625 -1.421875 29.109375 -1.421875 
Q 23.484375 -1.421875 17.84375 -0.515625 
Q 12.203125 0.390625 6.6875 2.203125 
L 6.6875 16.703125 
Q 11.96875 14.0625 17.15625 12.71875 
Q 22.359375 11.375 27.390625 11.375 
Q 34.859375 11.375 38.84375 13.953125 
Q 42.828125 16.546875 42.828125 21.390625 
Q 42.828125 26.375 38.75 28.9375 
Q 34.671875 31.5 26.703125 31.5 
L 19.1875 31.5 
L 19.1875 43.609375 
L 27.09375 43.609375 
Q 34.1875 43.609375 37.640625 45.828125 
Q 41.109375 48.046875 41.109375 52.59375 
Q 41.109375 56.78125 37.734375 59.078125 
Q 34.375 61.375 28.21875 61.375 
Q 23.6875 61.375 19.046875 60.34375 
Q 14.40625 59.328125 9.8125 57.328125 
L 9.8125 71.09375 
Q 15.375 72.65625 20.84375 73.4375 
Q 26.3125 74.21875 31.59375 74.21875 
Q 45.796875 74.21875 52.84375 69.546875 
Q 59.90625 64.890625 59.90625 55.515625 
Q 59.90625 49.125 56.53125 45.046875 
Q 53.171875 40.96875 46.578125 39.3125 
z
" id="DejaVuSans-Bold-51"/>
       </defs>
       <use xlink:href="#DejaVuSans-Bold-51"/>
       <use x="69.580078" xlink:href="#DejaVuSans-Bold-48"/>
      </g>
     </g>
    </g>
    <g id="xtick_5">
     <g id="line2d_9">
      <path clip-path="url(#p91e18f747a)" d="M 527.647059 320.4 
L 527.647059 43.2 
" style="fill:none;stroke:#b0b0b0;stroke-dasharray:2.96,1.28;stroke-dashoffset:0;stroke-width:0.8;"/>
     </g>
     <g id="line2d_10">
      <g>
       <use style="stroke:#000000;stroke-width:0.8;" x="527.647059" xlink:href="#m40ab662899" y="320.4"/>
      </g>
     </g>
     <g id="text_5">
      <!-- 40 -->
      <g transform="translate(519.297684 336.518125)scale(0.12 -0.12)">
       <defs>
        <path d="M 36.8125 57.421875 
L 16.21875 26.90625 
L 36.8125 26.90625 
z
M 33.6875 72.90625 
L 54.59375 72.90625 
L 54.59375 26.90625 
L 64.984375 26.90625 
L 64.984375 13.28125 
L 54.59375 13.28125 
L 54.59375 0 
L 36.8125 0 
L 36.8125 13.28125 
L 4.5 13.28125 
L 4.5 29.390625 
z
" id="DejaVuSans-Bold-52"/>
       </defs>
       <use xlink:href="#DejaVuSans-Bold-52"/>
       <use x="69.580078" xlink:href="#DejaVuSans-Bold-48"/>
      </g>
     </g>
    </g>
    <g id="xtick_6">
     <g id="line2d_11">
      <path clip-path="url(#p91e18f747a)" d="M 637.058824 320.4 
L 637.058824 43.2 
" style="fill:none;stroke:#b0b0b0;stroke-dasharray:2.96,1.28;stroke-dashoffset:0;stroke-width:0.8;"/>
     </g>
     <g id="line2d_12">
      <g>
       <use style="stroke:#000000;stroke-width:0.8;" x="637.058824" xlink:href="#m40ab662899" y="320.4"/>
      </g>
     </g>
     <g id="text_6">
      <!-- 50 -->
      <g transform="translate(628.709449 336.518125)scale(0.12 -0.12)">
       <defs>
        <path d="M 10.59375 72.90625 
L 57.328125 72.90625 
L 57.328125 59.078125 
L 25.59375 59.078125 
L 25.59375 47.796875 
Q 27.734375 48.390625 29.90625 48.703125 
Q 32.078125 49.03125 34.421875 49.03125 
Q 47.75 49.03125 55.171875 42.359375 
Q 62.59375 35.6875 62.59375 23.78125 
Q 62.59375 11.96875 54.515625 5.265625 
Q 46.4375 -1.421875 32.078125 -1.421875 
Q 25.875 -1.421875 19.796875 -0.21875 
Q 13.71875 0.984375 7.71875 3.421875 
L 7.71875 18.21875 
Q 13.671875 14.796875 19.015625 13.078125 
Q 24.359375 11.375 29.109375 11.375 
Q 35.9375 11.375 39.859375 14.71875 
Q 43.796875 18.0625 43.796875 23.78125 
Q 43.796875 29.546875 39.859375 32.859375 
Q 35.9375 36.1875 29.109375 36.1875 
Q 25.046875 36.1875 20.453125 35.125 
Q 15.875 34.078125 10.59375 31.890625 
z
" id="DejaVuSans-Bold-53"/>
       </defs>
       <use xlink:href="#DejaVuSans-Bold-53"/>
       <use x="69.580078" xlink:href="#DejaVuSans-Bold-48"/>
      </g>
     </g>
    </g>
    <g id="text_7">
     <!-- Iterations -->
     <g transform="translate(333.177891 352.891719)scale(0.13 -0.13)">
      <defs>
       <path d="M 9.1875 72.90625 
L 27.984375 72.90625 
L 27.984375 0 
L 9.1875 0 
z
" id="DejaVuSans-Bold-73"/>
       <path d="M 27.484375 70.21875 
L 27.484375 54.6875 
L 45.515625 54.6875 
L 45.515625 42.1875 
L 27.484375 42.1875 
L 27.484375 19 
Q 27.484375 15.1875 29 13.84375 
Q 30.515625 12.5 35.015625 12.5 
L 44 12.5 
L 44 0 
L 29 0 
Q 18.65625 0 14.328125 4.3125 
Q 10.015625 8.640625 10.015625 19 
L 10.015625 42.1875 
L 1.3125 42.1875 
L 1.3125 54.6875 
L 10.015625 54.6875 
L 10.015625 70.21875 
z
" id="DejaVuSans-Bold-116"/>
       <path d="M 62.984375 27.484375 
L 62.984375 22.515625 
L 22.125 22.515625 
Q 22.75 16.359375 26.5625 13.28125 
Q 30.375 10.203125 37.203125 10.203125 
Q 42.71875 10.203125 48.5 11.84375 
Q 54.296875 13.484375 60.40625 16.796875 
L 60.40625 3.328125 
Q 54.203125 0.984375 48 -0.21875 
Q 41.796875 -1.421875 35.59375 -1.421875 
Q 20.75 -1.421875 12.515625 6.125 
Q 4.296875 13.671875 4.296875 27.296875 
Q 4.296875 40.671875 12.375 48.328125 
Q 20.453125 56 34.625 56 
Q 47.515625 56 55.25 48.234375 
Q 62.984375 40.484375 62.984375 27.484375 
z
M 45.015625 33.296875 
Q 45.015625 38.28125 42.109375 41.328125 
Q 39.203125 44.390625 34.515625 44.390625 
Q 29.4375 44.390625 26.265625 41.53125 
Q 23.09375 38.671875 22.3125 33.296875 
z
" id="DejaVuSans-Bold-101"/>
       <path d="M 49.03125 39.796875 
Q 46.734375 40.875 44.453125 41.375 
Q 42.1875 41.890625 39.890625 41.890625 
Q 33.15625 41.890625 29.515625 37.5625 
Q 25.875 33.25 25.875 25.203125 
L 25.875 0 
L 8.40625 0 
L 8.40625 54.6875 
L 25.875 54.6875 
L 25.875 45.703125 
Q 29.25 51.078125 33.609375 53.53125 
Q 37.984375 56 44.09375 56 
Q 44.96875 56 45.984375 55.921875 
Q 47.015625 55.859375 48.96875 55.609375 
z
" id="DejaVuSans-Bold-114"/>
       <path d="M 32.90625 24.609375 
Q 27.4375 24.609375 24.671875 22.75 
Q 21.921875 20.90625 21.921875 17.28125 
Q 21.921875 13.96875 24.140625 12.078125 
Q 26.375 10.203125 30.328125 10.203125 
Q 35.25 10.203125 38.625 13.734375 
Q 42 17.28125 42 22.609375 
L 42 24.609375 
z
M 59.625 31.203125 
L 59.625 0 
L 42 0 
L 42 8.109375 
Q 38.484375 3.125 34.078125 0.84375 
Q 29.6875 -1.421875 23.390625 -1.421875 
Q 14.890625 -1.421875 9.59375 3.53125 
Q 4.296875 8.5 4.296875 16.40625 
Q 4.296875 26.03125 10.90625 30.515625 
Q 17.53125 35.015625 31.6875 35.015625 
L 42 35.015625 
L 42 36.375 
Q 42 40.53125 38.71875 42.453125 
Q 35.453125 44.390625 28.515625 44.390625 
Q 22.90625 44.390625 18.0625 43.265625 
Q 13.234375 42.140625 9.078125 39.890625 
L 9.078125 53.21875 
Q 14.703125 54.59375 20.359375 55.296875 
Q 26.03125 56 31.6875 56 
Q 46.484375 56 53.046875 50.171875 
Q 59.625 44.34375 59.625 31.203125 
z
" id="DejaVuSans-Bold-97"/>
       <path d="M 8.40625 54.6875 
L 25.875 54.6875 
L 25.875 0 
L 8.40625 0 
z
M 8.40625 75.984375 
L 25.875 75.984375 
L 25.875 61.71875 
L 8.40625 61.71875 
z
" id="DejaVuSans-Bold-105"/>
       <path d="M 34.421875 43.5 
Q 28.609375 43.5 25.5625 39.328125 
Q 22.515625 35.15625 22.515625 27.296875 
Q 22.515625 19.4375 25.5625 15.25 
Q 28.609375 11.078125 34.421875 11.078125 
Q 40.140625 11.078125 43.15625 15.25 
Q 46.1875 19.4375 46.1875 27.296875 
Q 46.1875 35.15625 43.15625 39.328125 
Q 40.140625 43.5 34.421875 43.5 
z
M 34.421875 56 
Q 48.53125 56 56.46875 48.375 
Q 64.40625 40.765625 64.40625 27.296875 
Q 64.40625 13.8125 56.46875 6.1875 
Q 48.53125 -1.421875 34.421875 -1.421875 
Q 20.265625 -1.421875 12.28125 6.1875 
Q 4.296875 13.8125 4.296875 27.296875 
Q 4.296875 40.765625 12.28125 48.375 
Q 20.265625 56 34.421875 56 
z
" id="DejaVuSans-Bold-111"/>
       <path d="M 63.375 33.296875 
L 63.375 0 
L 45.796875 0 
L 45.796875 5.421875 
L 45.796875 25.484375 
Q 45.796875 32.5625 45.484375 35.25 
Q 45.171875 37.9375 44.390625 39.203125 
Q 43.359375 40.921875 41.59375 41.875 
Q 39.84375 42.828125 37.59375 42.828125 
Q 32.125 42.828125 29 38.59375 
Q 25.875 34.375 25.875 26.90625 
L 25.875 0 
L 8.40625 0 
L 8.40625 54.6875 
L 25.875 54.6875 
L 25.875 46.6875 
Q 29.828125 51.46875 34.265625 53.734375 
Q 38.71875 56 44.09375 56 
Q 53.5625 56 58.46875 50.1875 
Q 63.375 44.390625 63.375 33.296875 
z
" id="DejaVuSans-Bold-110"/>
       <path d="M 51.125 52.984375 
L 51.125 39.703125 
Q 45.515625 42.046875 40.28125 43.21875 
Q 35.0625 44.390625 30.421875 44.390625 
Q 25.4375 44.390625 23.015625 43.140625 
Q 20.609375 41.890625 20.609375 39.3125 
Q 20.609375 37.203125 22.4375 36.078125 
Q 24.265625 34.96875 29 34.421875 
L 32.078125 33.984375 
Q 45.515625 32.28125 50.140625 28.375 
Q 54.78125 24.46875 54.78125 16.109375 
Q 54.78125 7.375 48.328125 2.96875 
Q 41.890625 -1.421875 29.109375 -1.421875 
Q 23.6875 -1.421875 17.890625 -0.5625 
Q 12.109375 0.296875 6 2 
L 6 15.28125 
Q 11.234375 12.75 16.71875 11.46875 
Q 22.21875 10.203125 27.875 10.203125 
Q 33.015625 10.203125 35.59375 11.609375 
Q 38.1875 13.03125 38.1875 15.828125 
Q 38.1875 18.171875 36.40625 19.3125 
Q 34.625 20.453125 29.296875 21.09375 
L 26.21875 21.484375 
Q 14.546875 22.953125 9.859375 26.90625 
Q 5.171875 30.859375 5.171875 38.921875 
Q 5.171875 47.609375 11.125 51.796875 
Q 17.09375 56 29.390625 56 
Q 34.234375 56 39.546875 55.265625 
Q 44.875 54.546875 51.125 52.984375 
z
" id="DejaVuSans-Bold-115"/>
      </defs>
      <use xlink:href="#DejaVuSans-Bold-73"/>
      <use x="37.207031" xlink:href="#DejaVuSans-Bold-116"/>
      <use x="85.009766" xlink:href="#DejaVuSans-Bold-101"/>
      <use x="152.832031" xlink:href="#DejaVuSans-Bold-114"/>
      <use x="202.148438" xlink:href="#DejaVuSans-Bold-97"/>
      <use x="269.628906" xlink:href="#DejaVuSans-Bold-116"/>
      <use x="317.431641" xlink:href="#DejaVuSans-Bold-105"/>
      <use x="351.708984" xlink:href="#DejaVuSans-Bold-111"/>
      <use x="420.410156" xlink:href="#DejaVuSans-Bold-110"/>
      <use x="491.601562" xlink:href="#DejaVuSans-Bold-115"/>
     </g>
    </g>
   </g>
   <g id="matplotlib.axis_2">
    <g id="ytick_1">
     <g id="line2d_13">
      <path clip-path="url(#p91e18f747a)" d="M 90 320.4 
L 648 320.4 
" style="fill:none;stroke:#b0b0b0;stroke-dasharray:2.96,1.28;stroke-dashoffset:0;stroke-width:0.8;"/>
     </g>
     <g id="line2d_14">
      <defs>
       <path d="M 0 0 
L -3.5 0 
" id="m1e81260b07" style="stroke:#000000;stroke-width:0.8;"/>
      </defs>
      <g>
       <use style="stroke:#000000;stroke-width:0.8;" x="90" xlink:href="#m1e81260b07" y="320.4"/>
      </g>
     </g>
     <g id="text_8">
      <!-- 0.30 -->
      <g transform="translate(53.39375 324.959062)scale(0.12 -0.12)">
       <defs>
        <path d="M 10.203125 18.890625 
L 27.78125 18.890625 
L 27.78125 0 
L 10.203125 0 
z
" id="DejaVuSans-Bold-46"/>
       </defs>
       <use xlink:href="#DejaVuSans-Bold-48"/>
       <use x="69.580078" xlink:href="#DejaVuSans-Bold-46"/>
       <use x="107.568359" xlink:href="#DejaVuSans-Bold-51"/>
       <use x="177.148438" xlink:href="#DejaVuSans-Bold-48"/>
      </g>
     </g>
    </g>
    <g id="ytick_2">
     <g id="line2d_15">
      <path clip-path="url(#p91e18f747a)" d="M 90 274.2 
L 648 274.2 
" style="fill:none;stroke:#b0b0b0;stroke-dasharray:2.96,1.28;stroke-dashoffset:0;stroke-width:0.8;"/>
     </g>
     <g id="line2d_16">
      <g>
       <use style="stroke:#000000;stroke-width:0.8;" x="90" xlink:href="#m1e81260b07" y="274.2"/>
      </g>
     </g>
     <g id="text_9">
      <!-- 0.32 -->
      <g transform="translate(53.39375 278.759062)scale(0.12 -0.12)">
       <use xlink:href="#DejaVuSans-Bold-48"/>
       <use x="69.580078" xlink:href="#DejaVuSans-Bold-46"/>
       <use x="107.568359" xlink:href="#DejaVuSans-Bold-51"/>
       <use x="177.148438" xlink:href="#DejaVuSans-Bold-50"/>
      </g>
     </g>
    </g>
    <g id="ytick_3">
     <g id="line2d_17">
      <path clip-path="url(#p91e18f747a)" d="M 90 228 
L 648 228 
" style="fill:none;stroke:#b0b0b0;stroke-dasharray:2.96,1.28;stroke-dashoffset:0;stroke-width:0.8;"/>
     </g>
     <g id="line2d_18">
      <g>
       <use style="stroke:#000000;stroke-width:0.8;" x="90" xlink:href="#m1e81260b07" y="228"/>
      </g>
     </g>
     <g id="text_10">
      <!-- 0.34 -->
      <g transform="translate(53.39375 232.559062)scale(0.12 -0.12)">
       <use xlink:href="#DejaVuSans-Bold-48"/>
       <use x="69.580078" xlink:href="#DejaVuSans-Bold-46"/>
       <use x="107.568359" xlink:href="#DejaVuSans-Bold-51"/>
       <use x="177.148438" xlink:href="#DejaVuSans-Bold-52"/>
      </g>
     </g>
    </g>
    <g id="ytick_4">
     <g id="line2d_19">
      <path clip-path="url(#p91e18f747a)" d="M 90 181.8 
L 648 181.8 
" style="fill:none;stroke:#b0b0b0;stroke-dasharray:2.96,1.28;stroke-dashoffset:0;stroke-width:0.8;"/>
     </g>
     <g id="line2d_20">
      <g>
       <use style="stroke:#000000;stroke-width:0.8;" x="90" xlink:href="#m1e81260b07" y="181.8"/>
      </g>
     </g>
     <g id="text_11">
      <!-- 0.36 -->
      <g transform="translate(53.39375 186.359062)scale(0.12 -0.12)">
       <defs>
        <path d="M 36.1875 35.984375 
Q 31.25 35.984375 28.78125 32.78125 
Q 26.3125 29.59375 26.3125 23.1875 
Q 26.3125 16.796875 28.78125 13.59375 
Q 31.25 10.40625 36.1875 10.40625 
Q 41.15625 10.40625 43.625 13.59375 
Q 46.09375 16.796875 46.09375 23.1875 
Q 46.09375 29.59375 43.625 32.78125 
Q 41.15625 35.984375 36.1875 35.984375 
z
M 59.421875 71 
L 59.421875 57.515625 
Q 54.78125 59.71875 50.671875 60.765625 
Q 46.578125 61.8125 42.671875 61.8125 
Q 34.28125 61.8125 29.59375 57.140625 
Q 24.90625 52.484375 24.125 43.3125 
Q 27.34375 45.703125 31.09375 46.890625 
Q 34.859375 48.09375 39.3125 48.09375 
Q 50.484375 48.09375 57.34375 41.546875 
Q 64.203125 35.015625 64.203125 24.421875 
Q 64.203125 12.703125 56.53125 5.640625 
Q 48.875 -1.421875 35.984375 -1.421875 
Q 21.78125 -1.421875 13.984375 8.171875 
Q 6.203125 17.78125 6.203125 35.40625 
Q 6.203125 53.46875 15.3125 63.796875 
Q 24.421875 74.125 40.28125 74.125 
Q 45.3125 74.125 50.046875 73.34375 
Q 54.78125 72.5625 59.421875 71 
z
" id="DejaVuSans-Bold-54"/>
       </defs>
       <use xlink:href="#DejaVuSans-Bold-48"/>
       <use x="69.580078" xlink:href="#DejaVuSans-Bold-46"/>
       <use x="107.568359" xlink:href="#DejaVuSans-Bold-51"/>
       <use x="177.148438" xlink:href="#DejaVuSans-Bold-54"/>
      </g>
     </g>
    </g>
    <g id="ytick_5">
     <g id="line2d_21">
      <path clip-path="url(#p91e18f747a)" d="M 90 135.6 
L 648 135.6 
" style="fill:none;stroke:#b0b0b0;stroke-dasharray:2.96,1.28;stroke-dashoffset:0;stroke-width:0.8;"/>
     </g>
     <g id="line2d_22">
      <g>
       <use style="stroke:#000000;stroke-width:0.8;" x="90" xlink:href="#m1e81260b07" y="135.6"/>
      </g>
     </g>
     <g id="text_12">
      <!-- 0.38 -->
      <g transform="translate(53.39375 140.159062)scale(0.12 -0.12)">
       <defs>
        <path d="M 34.8125 32.625 
Q 29.546875 32.625 26.703125 29.734375 
Q 23.875 26.859375 23.875 21.484375 
Q 23.875 16.109375 26.703125 13.25 
Q 29.546875 10.40625 34.8125 10.40625 
Q 40.046875 10.40625 42.828125 13.25 
Q 45.609375 16.109375 45.609375 21.484375 
Q 45.609375 26.90625 42.828125 29.765625 
Q 40.046875 32.625 34.8125 32.625 
z
M 21.09375 38.8125 
Q 14.453125 40.828125 11.078125 44.96875 
Q 7.71875 49.125 7.71875 55.328125 
Q 7.71875 64.546875 14.59375 69.375 
Q 21.484375 74.21875 34.8125 74.21875 
Q 48.046875 74.21875 54.921875 69.40625 
Q 61.8125 64.59375 61.8125 55.328125 
Q 61.8125 49.125 58.421875 44.96875 
Q 55.03125 40.828125 48.390625 38.8125 
Q 55.8125 36.765625 59.59375 32.15625 
Q 63.375 27.546875 63.375 20.515625 
Q 63.375 9.671875 56.171875 4.125 
Q 48.96875 -1.421875 34.8125 -1.421875 
Q 20.609375 -1.421875 13.359375 4.125 
Q 6.109375 9.671875 6.109375 20.515625 
Q 6.109375 27.546875 9.890625 32.15625 
Q 13.671875 36.765625 21.09375 38.8125 
z
M 25.484375 53.421875 
Q 25.484375 49.078125 27.90625 46.734375 
Q 30.328125 44.390625 34.8125 44.390625 
Q 39.203125 44.390625 41.59375 46.734375 
Q 44 49.078125 44 53.421875 
Q 44 57.765625 41.59375 60.078125 
Q 39.203125 62.40625 34.8125 62.40625 
Q 30.328125 62.40625 27.90625 60.0625 
Q 25.484375 57.71875 25.484375 53.421875 
z
" id="DejaVuSans-Bold-56"/>
       </defs>
       <use xlink:href="#DejaVuSans-Bold-48"/>
       <use x="69.580078" xlink:href="#DejaVuSans-Bold-46"/>
       <use x="107.568359" xlink:href="#DejaVuSans-Bold-51"/>
       <use x="177.148438" xlink:href="#DejaVuSans-Bold-56"/>
      </g>
     </g>
    </g>
    <g id="ytick_6">
     <g id="line2d_23">
      <path clip-path="url(#p91e18f747a)" d="M 90 89.4 
L 648 89.4 
" style="fill:none;stroke:#b0b0b0;stroke-dasharray:2.96,1.28;stroke-dashoffset:0;stroke-width:0.8;"/>
     </g>
     <g id="line2d_24">
      <g>
       <use style="stroke:#000000;stroke-width:0.8;" x="90" xlink:href="#m1e81260b07" y="89.4"/>
      </g>
     </g>
     <g id="text_13">
      <!-- 0.40 -->
      <g transform="translate(53.39375 93.959062)scale(0.12 -0.12)">
       <use xlink:href="#DejaVuSans-Bold-48"/>
       <use x="69.580078" xlink:href="#DejaVuSans-Bold-46"/>
       <use x="107.568359" xlink:href="#DejaVuSans-Bold-52"/>
       <use x="177.148438" xlink:href="#DejaVuSans-Bold-48"/>
      </g>
     </g>
    </g>
    <g id="ytick_7">
     <g id="line2d_25">
      <path clip-path="url(#p91e18f747a)" d="M 90 43.2 
L 648 43.2 
" style="fill:none;stroke:#b0b0b0;stroke-dasharray:2.96,1.28;stroke-dashoffset:0;stroke-width:0.8;"/>
     </g>
     <g id="line2d_26">
      <g>
       <use style="stroke:#000000;stroke-width:0.8;" x="90" xlink:href="#m1e81260b07" y="43.2"/>
      </g>
     </g>
     <g id="text_14">
      <!-- 0.42 -->
      <g transform="translate(53.39375 47.759062)scale(0.12 -0.12)">
       <use xlink:href="#DejaVuSans-Bold-48"/>
       <use x="69.580078" xlink:href="#DejaVuSans-Bold-46"/>
       <use x="107.568359" xlink:href="#DejaVuSans-Bold-52"/>
       <use x="177.148438" xlink:href="#DejaVuSans-Bold-50"/>
      </g>
     </g>
    </g>
    <g id="text_15">
     <!-- Recall@5 -->
     <g transform="translate(46.690156 214.932734)rotate(-90)scale(0.13 -0.13)">
      <defs>
       <path d="M 35.890625 40.578125 
Q 41.796875 40.578125 44.359375 42.765625 
Q 46.921875 44.96875 46.921875 50 
Q 46.921875 54.984375 44.359375 57.125 
Q 41.796875 59.28125 35.890625 59.28125 
L 27.984375 59.28125 
L 27.984375 40.578125 
z
M 27.984375 27.59375 
L 27.984375 0 
L 9.1875 0 
L 9.1875 72.90625 
L 37.890625 72.90625 
Q 52.296875 72.90625 59 68.0625 
Q 65.71875 63.234375 65.71875 52.78125 
Q 65.71875 45.5625 62.21875 40.921875 
Q 58.734375 36.28125 51.703125 34.078125 
Q 55.5625 33.203125 58.609375 30.09375 
Q 61.671875 27 64.796875 20.703125 
L 75 0 
L 54.984375 0 
L 46.09375 18.109375 
Q 43.40625 23.578125 40.640625 25.578125 
Q 37.890625 27.59375 33.296875 27.59375 
z
" id="DejaVuSans-Bold-82"/>
       <path d="M 52.59375 52.984375 
L 52.59375 38.71875 
Q 49.03125 41.15625 45.4375 42.328125 
Q 41.84375 43.5 37.984375 43.5 
Q 30.671875 43.5 26.59375 39.234375 
Q 22.515625 34.96875 22.515625 27.296875 
Q 22.515625 19.625 26.59375 15.34375 
Q 30.671875 11.078125 37.984375 11.078125 
Q 42.09375 11.078125 45.78125 12.296875 
Q 49.46875 13.53125 52.59375 15.921875 
L 52.59375 1.609375 
Q 48.484375 0.09375 44.265625 -0.65625 
Q 40.046875 -1.421875 35.796875 -1.421875 
Q 21 -1.421875 12.640625 6.171875 
Q 4.296875 13.765625 4.296875 27.296875 
Q 4.296875 40.828125 12.640625 48.40625 
Q 21 56 35.796875 56 
Q 40.09375 56 44.265625 55.25 
Q 48.4375 54.5 52.59375 52.984375 
z
" id="DejaVuSans-Bold-99"/>
       <path d="M 8.40625 75.984375 
L 25.875 75.984375 
L 25.875 0 
L 8.40625 0 
z
" id="DejaVuSans-Bold-108"/>
       <path d="M 40.578125 26.3125 
Q 40.578125 20.3125 43.140625 16.84375 
Q 45.703125 13.375 50.09375 13.375 
Q 54.4375 13.375 57.03125 16.859375 
Q 59.625 20.359375 59.625 26.3125 
Q 59.625 32.234375 57 35.671875 
Q 54.390625 39.109375 50 39.109375 
Q 45.703125 39.109375 43.140625 35.671875 
Q 40.578125 32.234375 40.578125 26.3125 
z
M 60.59375 11.625 
Q 59.125 8.15625 55.875 6.21875 
Q 52.640625 4.296875 48.296875 4.296875 
Q 39.890625 4.296875 34.640625 10.375 
Q 29.390625 16.453125 29.390625 26.21875 
Q 29.390625 35.984375 34.65625 42.078125 
Q 39.9375 48.1875 48.296875 48.1875 
Q 52.640625 48.1875 55.875 46.234375 
Q 59.125 44.28125 60.59375 40.828125 
L 60.59375 47.21875 
L 70.796875 47.21875 
L 70.796875 13.375 
Q 76.859375 14.3125 80.328125 19.21875 
Q 83.796875 24.125 83.796875 31.78125 
Q 83.796875 36.671875 82.375 40.9375 
Q 80.953125 45.21875 78.078125 48.78125 
Q 73.4375 54.734375 66.46875 57.953125 
Q 59.515625 61.1875 51.421875 61.1875 
Q 45.75 61.1875 40.578125 59.6875 
Q 35.40625 58.203125 31 55.328125 
Q 23.78125 50.53125 19.75 42.9375 
Q 15.71875 35.359375 15.71875 26.515625 
Q 15.71875 19.234375 18.328125 12.859375 
Q 20.953125 6.5 25.875 1.609375 
Q 30.765625 -3.171875 37.078125 -5.6875 
Q 43.40625 -8.203125 50.59375 -8.203125 
Q 56.734375 -8.203125 62.890625 -5.90625 
Q 69.046875 -3.609375 73.390625 0.296875 
L 78.609375 -7.625 
Q 72.515625 -12.359375 65.3125 -14.875 
Q 58.109375 -17.390625 50.6875 -17.390625 
Q 41.65625 -17.390625 33.640625 -14.1875 
Q 25.640625 -10.984375 19.390625 -4.890625 
Q 13.140625 1.21875 9.859375 9.25 
Q 6.59375 17.28125 6.59375 26.515625 
Q 6.59375 35.40625 9.90625 43.453125 
Q 13.234375 51.515625 19.390625 57.625 
Q 25.53125 63.671875 33.703125 66.984375 
Q 41.890625 70.3125 50.6875 70.3125 
Q 61.625 70.3125 70.5625 66.140625 
Q 79.5 61.96875 85.5 54.109375 
Q 89.15625 49.3125 91.03125 43.71875 
Q 92.921875 38.140625 92.921875 31.984375 
Q 92.921875 18.75 84.953125 11.421875 
Q 77 4.109375 62.5 4.109375 
L 60.59375 4.109375 
z
" id="DejaVuSans-Bold-64"/>
      </defs>
      <use xlink:href="#DejaVuSans-Bold-82"/>
      <use x="77.001953" xlink:href="#DejaVuSans-Bold-101"/>
      <use x="144.824219" xlink:href="#DejaVuSans-Bold-99"/>
      <use x="204.101562" xlink:href="#DejaVuSans-Bold-97"/>
      <use x="271.582031" xlink:href="#DejaVuSans-Bold-108"/>
      <use x="305.859375" xlink:href="#DejaVuSans-Bold-108"/>
      <use x="340.136719" xlink:href="#DejaVuSans-Bold-64"/>
      <use x="440.136719" xlink:href="#DejaVuSans-Bold-53"/>
     </g>
    </g>
   </g>
   <g id="line2d_27">
    <path clip-path="url(#p91e18f747a)" d="M 111.935501 361 
L 115.285461 326.103576 
L 117.078497 309.363435 
L 118.871533 294.243844 
L 120.664568 280.970696 
L 122.457604 269.769887 
L 124.250639 260.810466 
L 126.043675 253.835815 
L 127.836711 248.396341 
L 129.629746 244.04149 
L 135.008853 233.00967 
L 138.594924 224.553744 
L 145.767067 206.726019 
L 147.560102 202.672651 
L 149.353138 199.028172 
L 151.146174 195.9291 
L 152.939209 193.511953 
L 154.732245 191.91325 
L 156.52528 191.25866 
L 158.318316 191.411968 
L 161.904387 192.509368 
L 163.697423 192.61861 
L 165.490458 191.878312 
L 167.283494 189.879518 
L 169.07653 186.56755 
L 170.869565 182.363041 
L 174.455636 173.09225 
L 176.248672 168.933894 
L 178.041708 165.695739 
L 179.834743 163.557851 
L 181.627779 162.22321 
L 187.006886 159.58295 
L 188.799921 158.006219 
L 190.592957 155.702367 
L 194.179028 150.215431 
L 195.972064 147.78134 
L 197.765099 146.052828 
L 199.558135 145.404313 
L 201.351171 146.026113 
L 203.144206 147.531202 
L 206.730277 151.191626 
L 208.523313 152.347154 
L 210.316349 152.386352 
L 212.109384 150.954766 
L 213.90242 148.31648 
L 215.695455 144.899972 
L 219.281527 137.446205 
L 221.074562 134.265904 
L 222.867598 131.954197 
L 224.660633 130.483686 
L 226.453669 129.687292 
L 228.246705 129.397753 
L 230.03974 129.447806 
L 240.797954 130.873507 
L 244.384025 131.596421 
L 247.970096 132.442572 
L 249.763132 132.779783 
L 251.556168 132.983467 
L 253.349203 132.996409 
L 255.142239 132.76278 
L 256.935274 132.250015 
L 258.72831 131.444845 
L 260.521346 130.334592 
L 262.314381 128.906572 
L 264.107417 127.148106 
L 265.900452 125.0495 
L 273.072595 115.535414 
L 274.865631 113.676273 
L 276.658666 112.344485 
L 278.451702 111.611231 
L 280.244737 111.423515 
L 282.037773 111.718923 
L 283.830809 112.435041 
L 285.623844 113.509455 
L 287.41688 114.879817 
L 289.209915 116.490595 
L 292.795987 120.263458 
L 296.382058 124.495079 
L 299.968129 128.799116 
L 301.761165 130.62514 
L 303.5542 131.907026 
L 305.347236 132.394572 
L 307.140271 131.837576 
L 308.933307 129.985861 
L 310.726343 126.723639 
L 312.519378 122.382785 
L 319.691521 102.732587 
L 321.484556 99.322112 
L 323.277592 97.049516 
L 325.070628 95.992249 
L 326.863663 96.227755 
L 328.656699 97.833482 
L 330.449734 100.886874 
L 332.24277 105.388607 
L 337.621877 122.130398 
L 339.414912 126.610228 
L 341.207948 129.44968 
L 343.000984 130.077737 
L 344.794019 128.633417 
L 346.587055 125.616242 
L 348.38009 121.528565 
L 353.759197 107.848895 
L 355.552233 104.241626 
L 357.345269 101.464622 
L 359.138304 99.650619 
L 360.93134 98.932354 
L 362.724375 99.442563 
L 364.517411 101.295638 
L 366.310447 104.270207 
L 369.896518 111.512851 
L 371.689553 114.730552 
L 373.482589 116.978923 
L 375.275625 117.747954 
L 377.06866 116.977084 
L 378.861696 115.119235 
L 384.240803 107.833595 
L 386.033838 106.431886 
L 387.826874 106.024499 
L 389.61991 106.30797 
L 393.205981 107.580873 
L 394.999016 107.887001 
L 396.792052 107.519224 
L 398.585088 106.373023 
L 402.171159 103.235065 
L 403.964194 102.069402 
L 405.75723 101.723345 
L 407.550266 102.609532 
L 409.343301 104.933641 
L 411.136337 108.358281 
L 414.722408 116.807587 
L 416.515444 120.981472 
L 418.308479 124.554327 
L 420.101515 127.183521 
L 421.89455 128.819347 
L 423.687586 129.476885 
L 425.480622 129.171214 
L 427.273657 127.917413 
L 429.066693 125.730562 
L 430.859729 122.676411 
L 436.238835 111.696729 
L 438.031871 108.706259 
L 439.824907 106.688092 
L 441.617942 105.948531 
L 443.410978 106.292344 
L 445.204013 107.321671 
L 448.790085 109.843171 
L 450.58312 110.538494 
L 452.376156 110.374487 
L 454.169191 109.449211 
L 459.548298 105.499105 
L 461.341334 104.926689 
L 463.134369 105.263332 
L 464.927405 106.410834 
L 468.513476 109.587044 
L 470.306512 110.830984 
L 472.099548 111.3223 
L 473.892583 110.690082 
L 475.685619 108.992962 
L 481.064726 102.123629 
L 482.857761 100.808071 
L 484.650797 100.751172 
L 486.443832 102.018298 
L 488.236868 104.201424 
L 491.822939 109.570836 
L 493.615975 111.884703 
L 495.40901 113.374047 
L 497.202046 113.879087 
L 498.995082 113.669557 
L 504.374188 111.82956 
L 506.167224 111.836722 
L 507.96026 112.500393 
L 509.753295 113.618783 
L 513.339367 116.240814 
L 515.132402 117.255002 
L 516.925438 117.74513 
L 518.718473 117.562503 
L 520.511509 116.825366 
L 522.304545 115.698032 
L 527.683651 111.617999 
L 529.476687 110.566427 
L 531.269723 109.908207 
L 533.062758 109.770386 
L 534.855794 110.280016 
L 536.648829 111.564144 
L 538.441865 113.749821 
L 540.234901 116.884372 
L 545.614007 127.856726 
L 547.407043 130.402068 
L 549.200079 131.573822 
L 550.993114 130.980934 
L 552.78615 128.930122 
L 554.579186 126.026806 
L 556.372221 122.87754 
L 558.165257 120.088878 
L 559.958292 118.267373 
L 561.751328 117.949957 
L 563.544364 118.989588 
L 565.337399 120.851009 
L 567.130435 122.994506 
L 568.92347 124.880367 
L 570.716506 125.968877 
L 572.509542 125.761876 
L 574.302577 124.353751 
L 577.888648 120.088916 
L 579.681684 118.32543 
L 581.47472 117.536717 
L 583.267755 118.245334 
L 585.060791 120.446216 
L 586.853826 123.620537 
L 590.439898 130.729057 
L 592.232933 133.58304 
L 594.025969 135.25947 
L 595.819005 135.577765 
L 597.61204 134.802453 
L 599.405076 133.226856 
L 601.198111 131.144296 
L 604.784183 126.630543 
L 606.577218 124.707427 
L 608.370254 123.167006 
L 610.163289 122.085447 
L 611.956325 121.538916 
L 613.749361 121.60358 
L 615.542396 122.35522 
L 617.335432 123.792386 
L 619.128467 125.743265 
L 626.30061 134.792633 
L 628.093645 136.393621 
L 629.886681 137.34094 
L 631.679717 137.440027 
L 633.472752 136.496319 
L 635.265788 134.315251 
L 637.058824 130.702261 
L 637.058824 130.702261 
" style="fill:none;stroke:#ff8c00;stroke-linecap:square;stroke-width:1.5;"/>
   </g>
   <g id="line2d_28">
    <path clip-path="url(#p91e18f747a)" d="M 127.818113 361 
L 129.629746 349.117863 
L 133.215817 324.274889 
L 140.38796 272.329408 
L 142.180995 260.456545 
L 143.974031 249.658381 
L 145.767067 240.230613 
L 147.560102 232.174879 
L 149.353138 225.261547 
L 151.146174 219.254741 
L 152.939209 213.918586 
L 156.52528 204.321104 
L 160.111352 195.40032 
L 161.904387 191.347702 
L 163.697423 187.686445 
L 165.490458 184.506183 
L 167.283494 181.895308 
L 169.07653 179.890293 
L 170.869565 178.457953 
L 172.662601 177.560215 
L 174.455636 177.159011 
L 176.248672 177.21627 
L 178.041708 177.692967 
L 181.627779 179.269803 
L 183.420814 179.818005 
L 185.21385 179.828171 
L 187.006886 179.016881 
L 188.799921 177.101496 
L 190.592957 174.005388 
L 192.385993 170.133165 
L 195.972064 161.953204 
L 197.765099 158.591882 
L 199.558135 156.347194 
L 201.351171 155.501036 
L 203.144206 155.735605 
L 204.937242 156.615849 
L 206.730277 157.706713 
L 208.523313 158.573145 
L 210.316349 158.780092 
L 212.109384 157.998401 
L 213.90242 156.349263 
L 215.695455 154.073565 
L 222.867598 143.491246 
L 224.660633 141.417926 
L 226.453669 139.636201 
L 228.246705 138.106186 
L 230.03974 136.787999 
L 233.625812 134.623818 
L 237.211883 132.663603 
L 239.004918 131.544971 
L 240.797954 130.216359 
L 242.59099 128.589542 
L 244.384025 126.595495 
L 247.970096 122.23849 
L 249.763132 120.451028 
L 251.556168 119.309382 
L 253.349203 119.102392 
L 255.142239 120.093152 
L 256.935274 122.11224 
L 260.521346 127.111322 
L 262.314381 129.01298 
L 264.107417 129.79716 
L 265.900452 128.944501 
L 267.693488 126.46407 
L 269.486524 122.937296 
L 273.072595 115.184906 
L 274.865631 112.17938 
L 276.658666 110.558822 
L 278.451702 110.502358 
L 280.244737 111.591512 
L 282.037773 113.362488 
L 283.830809 115.351491 
L 285.623844 117.094725 
L 287.41688 118.130749 
L 289.209915 118.244087 
L 291.002951 117.677358 
L 296.382058 114.822904 
L 298.175093 114.461613 
L 299.968129 114.729203 
L 305.347236 116.670308 
L 307.140271 116.70312 
L 308.933307 115.932012 
L 310.726343 114.190793 
L 312.519378 111.752608 
L 316.10545 106.243379 
L 317.898485 103.901359 
L 319.691521 102.320416 
L 321.484556 101.780387 
L 323.277592 102.17825 
L 325.070628 103.302824 
L 326.863663 104.942921 
L 334.035806 112.602287 
L 335.828841 114.094599 
L 337.621877 115.283592 
L 339.414912 116.114977 
L 341.207948 116.534466 
L 343.000984 116.496519 
L 344.794019 116.030458 
L 346.587055 115.203616 
L 348.38009 114.083622 
L 350.173126 112.738107 
L 357.345269 106.717409 
L 359.138304 105.683869 
L 360.93134 105.140413 
L 362.724375 105.239484 
L 364.517411 106.120039 
L 366.310447 107.674261 
L 369.896518 111.501123 
L 371.689553 113.111531 
L 373.482589 114.078437 
L 375.275625 114.081137 
L 377.06866 113.107322 
L 378.861696 111.497006 
L 382.447767 107.803942 
L 384.240803 106.439728 
L 386.033838 105.8713 
L 387.826874 106.192548 
L 389.61991 107.107818 
L 393.205981 109.410295 
L 394.999016 110.142435 
L 396.792052 110.159741 
L 398.585088 109.298608 
L 400.378123 107.71578 
L 402.171159 105.605442 
L 405.75723 100.578961 
L 407.550266 98.051142 
L 409.343301 95.751203 
L 411.136337 93.796256 
L 412.929372 92.294372 
L 414.722408 91.353625 
L 416.515444 91.082089 
L 418.308479 91.58783 
L 420.101515 92.903584 
L 421.89455 94.795417 
L 425.480622 99.135673 
L 427.273657 100.998276 
L 429.066693 102.265313 
L 430.859729 102.713579 
L 432.652764 102.455032 
L 434.4458 101.702245 
L 439.824907 98.604375 
L 441.617942 97.971069 
L 443.410978 97.65355 
L 445.204013 97.562602 
L 452.376156 97.689643 
L 455.962227 97.480271 
L 457.755263 97.575365 
L 459.548298 97.963604 
L 461.341334 98.764956 
L 463.134369 100.083079 
L 466.720441 103.671988 
L 468.513476 105.4129 
L 470.306512 106.762739 
L 472.099548 107.454971 
L 473.892583 107.236673 
L 475.685619 106.127192 
L 477.478654 104.397241 
L 482.857761 98.285909 
L 484.650797 96.86974 
L 486.443832 96.03465 
L 488.236868 95.641051 
L 490.029904 95.535889 
L 493.615975 95.57864 
L 495.40901 95.422016 
L 497.202046 95.04421 
L 500.788117 94.05874 
L 502.581153 93.688681 
L 504.374188 93.558811 
L 506.167224 93.787378 
L 507.96026 94.40488 
L 513.339367 96.975925 
L 515.132402 97.48839 
L 516.925438 97.536659 
L 518.718473 97.031576 
L 520.511509 96.123209 
L 525.890616 92.891954 
L 527.683651 92.284003 
L 529.476687 92.17119 
L 531.269723 92.466948 
L 533.062758 93.033084 
L 536.648829 94.423703 
L 538.441865 94.971796 
L 540.234901 95.267906 
L 543.820972 95.345114 
L 547.407043 95.38537 
L 549.200079 95.635313 
L 550.993114 96.146723 
L 556.372221 98.224239 
L 558.165257 98.625174 
L 559.958292 98.643866 
L 561.751328 98.164797 
L 567.130435 95.764562 
L 568.92347 95.615279 
L 570.716506 96.27814 
L 572.509542 98.013814 
L 574.302577 100.635515 
L 577.888648 106.447796 
L 579.681684 108.581818 
L 581.47472 109.496724 
L 583.267755 108.689193 
L 585.060791 106.203348 
L 586.853826 102.616379 
L 590.439898 94.536143 
L 592.232933 91.241415 
L 594.025969 89.231744 
L 595.819005 88.691653 
L 597.61204 89.292193 
L 599.405076 90.671194 
L 602.991147 94.315908 
L 604.784183 95.859347 
L 606.577218 96.88874 
L 608.370254 97.449517 
L 610.163289 97.611145 
L 611.956325 97.443087 
L 613.749361 97.014808 
L 615.542396 96.395727 
L 619.128467 94.807288 
L 626.30061 91.316724 
L 628.093645 90.600885 
L 629.886681 90.023934 
L 631.679717 89.623953 
L 633.472752 89.439028 
L 635.265788 89.50724 
L 637.058824 89.866673 
L 637.058824 89.866673 
" style="fill:none;stroke:#228b22;stroke-linecap:square;stroke-width:1.5;"/>
   </g>
   <g id="line2d_29">
    <path clip-path="url(#p91e18f747a)" d="M 134.294421 361 
L 135.008853 354.761114 
L 142.180995 286.171172 
L 143.974031 271.378362 
L 145.767067 259.025434 
L 147.560102 249.196968 
L 149.353138 241.471347 
L 151.146174 235.413295 
L 152.939209 230.587535 
L 154.732245 226.558792 
L 158.318316 219.386153 
L 161.904387 212.727729 
L 165.490458 206.501771 
L 169.07653 200.662874 
L 170.869565 197.952585 
L 172.662601 195.44946 
L 174.455636 193.204868 
L 176.248672 191.27018 
L 178.041708 189.695856 
L 179.834743 188.453126 
L 183.420814 186.27478 
L 185.21385 184.974015 
L 187.006886 183.288758 
L 188.799921 181.036863 
L 190.592957 178.149177 
L 194.179028 171.283252 
L 195.972064 167.769861 
L 197.765099 164.512751 
L 199.558135 161.744307 
L 201.351171 159.610324 
L 203.144206 157.985042 
L 204.937242 156.689604 
L 208.523313 154.372845 
L 210.316349 152.993815 
L 212.109384 151.288916 
L 215.695455 147.508012 
L 217.488491 145.83648 
L 219.281527 144.580543 
L 221.074562 143.942438 
L 222.867598 144.068347 
L 224.660633 144.779678 
L 228.246705 146.777325 
L 230.03974 147.472774 
L 231.832776 147.572063 
L 233.625812 146.820112 
L 235.418847 145.284722 
L 237.211883 143.188634 
L 242.59099 135.773391 
L 244.384025 133.657014 
L 246.177061 131.902327 
L 247.970096 130.445861 
L 249.763132 129.222475 
L 253.349203 127.214364 
L 256.935274 125.472294 
L 258.72831 124.827551 
L 260.521346 124.484036 
L 262.314381 124.555109 
L 264.107417 125.154132 
L 265.900452 126.386288 
L 267.693488 128.138688 
L 269.486524 130.062226 
L 271.279559 131.795991 
L 273.072595 132.979071 
L 274.865631 133.250551 
L 276.658666 132.255936 
L 278.451702 129.945859 
L 280.244737 126.703015 
L 285.623844 115.532458 
L 287.41688 112.711502 
L 289.209915 110.862293 
L 291.002951 109.913398 
L 292.795987 109.758924 
L 294.589022 110.29298 
L 296.382058 111.409672 
L 298.175093 113.002985 
L 303.5542 118.678068 
L 305.347236 119.958919 
L 307.140271 120.471342 
L 308.933307 119.937564 
L 310.726343 118.234035 
L 312.519378 115.750942 
L 314.312414 112.98532 
L 316.10545 110.434201 
L 317.898485 108.594616 
L 319.691521 107.963599 
L 321.484556 108.879819 
L 323.277592 110.965899 
L 326.863663 116.328981 
L 328.656699 118.446633 
L 330.449734 119.415459 
L 332.24277 118.772985 
L 334.035806 116.779995 
L 335.828841 113.97291 
L 337.621877 110.88869 
L 339.414912 108.064298 
L 341.207948 106.036695 
L 343.000984 105.274123 
L 344.794019 105.656793 
L 346.587055 106.766357 
L 350.173126 109.4834 
L 351.966162 110.249497 
L 353.759197 110.097757 
L 355.552233 109.110272 
L 359.138304 106.205776 
L 360.93134 105.086175 
L 362.724375 104.719945 
L 364.517411 105.481066 
L 366.310447 107.290981 
L 369.896518 112.145183 
L 371.689553 114.213403 
L 373.482589 115.391655 
L 375.275625 115.206275 
L 377.06866 113.609066 
L 378.861696 111.037922 
L 382.447767 104.831646 
L 384.240803 102.12542 
L 386.033838 100.297757 
L 387.826874 99.517987 
L 389.61991 99.522242 
L 391.412945 100.011198 
L 394.999016 101.245919 
L 396.792052 101.394337 
L 398.585088 100.998405 
L 402.171159 99.387061 
L 403.964194 98.635625 
L 405.75723 98.229664 
L 407.550266 98.400944 
L 409.343301 99.269541 
L 411.136337 100.66245 
L 416.515444 105.782076 
L 418.308479 107.067263 
L 420.101515 107.825668 
L 421.89455 108.070072 
L 423.687586 107.853484 
L 425.480622 107.228915 
L 427.273657 106.249374 
L 429.066693 104.96787 
L 434.4458 100.368479 
L 436.238835 99.150744 
L 438.031871 98.386615 
L 439.824907 98.25364 
L 441.617942 98.887735 
L 443.410978 100.151016 
L 448.790085 105.229683 
L 450.58312 106.522799 
L 452.376156 107.227574 
L 454.169191 107.361838 
L 455.962227 107.0725 
L 457.755263 106.507705 
L 461.341334 105.144329 
L 463.134369 104.632416 
L 466.720441 104.043613 
L 470.306512 103.507506 
L 472.099548 103.059579 
L 473.892583 102.388715 
L 475.685619 101.48751 
L 479.27169 99.221657 
L 484.650797 95.543069 
L 490.029904 92.174315 
L 491.822939 90.932763 
L 493.615975 89.53923 
L 498.995082 84.699483 
L 500.788117 83.69731 
L 502.581153 83.546938 
L 504.374188 84.578086 
L 506.167224 87.118452 
L 507.96026 91.175614 
L 511.546331 101.118965 
L 513.339367 105.519406 
L 515.132402 108.548527 
L 516.925438 109.463932 
L 518.718473 107.889361 
L 520.511509 104.467602 
L 525.890616 91.305896 
L 527.683651 88.682084 
L 529.476687 88.064999 
L 531.269723 89.133009 
L 533.062758 91.352641 
L 536.648829 97.112881 
L 538.441865 99.586544 
L 540.234901 101.1625 
L 542.027936 101.824346 
L 543.820972 101.693594 
L 545.614007 100.891816 
L 547.407043 99.540583 
L 549.200079 97.761468 
L 552.78615 93.476712 
L 554.579186 91.336613 
L 556.372221 89.454678 
L 558.165257 88.023405 
L 559.958292 87.235296 
L 561.751328 87.259304 
L 563.544364 88.033052 
L 565.337399 89.362862 
L 567.130435 91.05355 
L 570.716506 94.736824 
L 572.509542 96.34448 
L 574.302577 97.62071 
L 576.095613 98.511135 
L 577.888648 98.962756 
L 579.681684 98.922574 
L 581.47472 98.337591 
L 583.267755 97.161217 
L 585.060791 95.487425 
L 590.439898 89.812686 
L 592.232933 88.491703 
L 594.025969 87.845653 
L 595.819005 87.9375 
L 597.61204 88.615347 
L 599.405076 89.713394 
L 606.577218 95.046112 
L 608.370254 96.003615 
L 610.163289 96.724895 
L 611.956325 97.190878 
L 613.749361 97.382491 
L 615.542396 97.280771 
L 617.335432 96.889196 
L 619.128467 96.260731 
L 622.714539 94.53144 
L 628.093645 91.650251 
L 629.886681 90.85156 
L 631.679717 90.233016 
L 633.472752 89.854195 
L 635.265788 89.774675 
L 637.058824 90.054031 
L 637.058824 90.054031 
" style="fill:none;stroke:#1f77b4;stroke-linecap:square;stroke-width:1.5;"/>
   </g>
   <g id="line2d_30">
    <path clip-path="url(#p91e18f747a)" d="M 118.014894 361 
L 118.871533 349.429258 
L 120.664568 327.498822 
L 122.457604 308.76044 
L 124.250639 293.976998 
L 126.043675 282.856926 
L 127.836711 274.630613 
L 129.629746 268.526074 
L 131.422782 263.771327 
L 135.008853 255.2735 
L 138.594924 245.750144 
L 143.974031 231.192868 
L 145.767067 226.784831 
L 147.560102 222.750011 
L 149.353138 219.107241 
L 151.146174 215.874079 
L 152.939209 213.06808 
L 154.732245 210.706801 
L 156.52528 208.803943 
L 158.318316 207.280108 
L 163.697423 203.215253 
L 165.490458 201.431303 
L 167.283494 199.137633 
L 169.07653 196.314221 
L 176.248672 183.644916 
L 178.041708 181.149002 
L 179.834743 179.176423 
L 185.21385 174.185041 
L 187.006886 172.038593 
L 188.799921 169.255682 
L 190.592957 165.75379 
L 195.972064 153.919649 
L 197.765099 150.630035 
L 199.558135 148.216881 
L 201.351171 146.892332 
L 203.144206 146.501046 
L 204.937242 146.815834 
L 206.730277 147.609508 
L 212.109384 150.619654 
L 213.90242 151.257912 
L 215.695455 151.589177 
L 217.488491 151.563099 
L 219.281527 151.129328 
L 221.074562 150.237512 
L 222.867598 148.850099 
L 224.660633 147.003686 
L 226.453669 144.76151 
L 228.246705 142.186845 
L 231.832776 136.293139 
L 235.418847 130.011053 
L 237.211883 127.237124 
L 239.004918 125.052745 
L 240.797954 123.716611 
L 242.59099 123.48742 
L 244.384025 124.586824 
L 246.177061 126.816277 
L 251.556168 135.620533 
L 253.349203 137.697336 
L 255.142239 138.589593 
L 256.935274 138.29195 
L 258.72831 137.162138 
L 264.107417 132.466881 
L 265.900452 131.684511 
L 267.693488 131.595939 
L 269.486524 131.943275 
L 273.072595 132.850122 
L 274.865631 132.861857 
L 276.658666 132.217801 
L 278.451702 130.83119 
L 280.244737 128.874762 
L 282.037773 126.540935 
L 285.623844 121.510759 
L 287.41688 119.198653 
L 289.209915 117.215786 
L 291.002951 115.576935 
L 292.795987 114.284307 
L 294.589022 113.340108 
L 296.382058 112.746545 
L 298.175093 112.505763 
L 299.968129 112.598104 
L 301.761165 112.949945 
L 305.347236 114.104811 
L 308.933307 115.315733 
L 310.726343 115.755462 
L 312.519378 116.058681 
L 314.312414 116.233048 
L 316.10545 116.28622 
L 319.691521 116.059603 
L 321.484556 115.788934 
L 323.277592 115.387307 
L 325.070628 114.820269 
L 326.863663 114.053369 
L 328.656699 113.052156 
L 330.449734 111.782177 
L 334.035806 108.561228 
L 335.828841 106.973212 
L 337.621877 105.682814 
L 339.414912 104.902052 
L 341.207948 104.842939 
L 343.000984 105.67629 
L 344.794019 107.220357 
L 348.38009 110.996227 
L 350.173126 112.503715 
L 351.966162 113.274696 
L 353.759197 112.980703 
L 355.552233 111.704919 
L 357.345269 109.805918 
L 360.93134 105.592764 
L 362.724375 104.005862 
L 364.517411 103.233661 
L 366.310447 103.319729 
L 368.103482 104.042001 
L 369.896518 105.169443 
L 373.482589 107.7157 
L 375.275625 108.676048 
L 377.06866 109.231291 
L 378.861696 109.382507 
L 380.654731 109.137434 
L 382.447767 108.503808 
L 384.240803 107.489368 
L 386.033838 106.10337 
L 391.412945 101.143555 
L 393.205981 99.966997 
L 394.999016 99.40586 
L 396.792052 99.684863 
L 398.585088 100.835143 
L 403.964194 105.833968 
L 405.75723 106.70057 
L 407.550266 106.509916 
L 409.343301 105.078477 
L 411.136337 102.775756 
L 414.722408 97.392926 
L 416.515444 95.231049 
L 418.308479 94.034341 
L 420.101515 94.101488 
L 421.89455 95.16333 
L 423.687586 96.825116 
L 425.480622 98.692098 
L 427.273657 100.369527 
L 429.066693 101.462655 
L 430.859729 101.663207 
L 432.652764 101.078716 
L 434.4458 99.941536 
L 439.824907 95.53766 
L 441.617942 94.484347 
L 443.410978 93.790024 
L 445.204013 93.388508 
L 446.997049 93.213398 
L 450.58312 93.276794 
L 455.962227 93.672142 
L 459.548298 94.11024 
L 463.134369 94.784481 
L 472.099548 96.911693 
L 475.685619 97.384863 
L 479.27169 97.534198 
L 482.857761 97.452372 
L 493.615975 96.948275 
L 497.202046 97.156859 
L 502.581153 97.631619 
L 504.374188 97.675641 
L 506.167224 97.596623 
L 509.753295 97.063906 
L 516.925438 95.687448 
L 520.511509 95.454388 
L 524.09758 95.540888 
L 533.062758 96.123196 
L 534.855794 96.034861 
L 536.648829 95.773603 
L 538.441865 95.293507 
L 542.027936 93.756283 
L 543.820972 93.007484 
L 545.614007 92.508856 
L 547.407043 92.438128 
L 549.200079 92.973028 
L 550.993114 94.253784 
L 552.78615 96.157572 
L 556.372221 100.892075 
L 558.165257 103.251068 
L 559.958292 105.290072 
L 561.751328 106.785412 
L 563.544364 107.633146 
L 565.337399 107.797288 
L 567.130435 107.242632 
L 568.92347 105.933971 
L 570.716506 103.836101 
L 572.509542 100.931358 
L 577.888648 90.451345 
L 579.681684 87.77642 
L 581.47472 86.216433 
L 583.267755 86.174471 
L 585.060791 87.607186 
L 586.853826 90.03653 
L 590.439898 95.900872 
L 592.232933 98.343756 
L 594.025969 99.808131 
L 595.819005 100.144045 
L 597.61204 99.63004 
L 599.405076 98.572379 
L 602.991147 96.051133 
L 604.784183 95.198098 
L 606.577218 94.87702 
L 608.370254 95.004127 
L 610.163289 95.472652 
L 611.956325 96.175824 
L 617.335432 98.643506 
L 619.128467 99.30978 
L 620.921503 99.812905 
L 622.714539 100.107837 
L 624.507574 100.149532 
L 626.30061 99.892947 
L 628.093645 99.293037 
L 629.886681 98.304757 
L 631.679717 96.883064 
L 633.472752 94.982913 
L 635.265788 92.559261 
L 637.058824 89.567063 
L 637.058824 89.567063 
" style="fill:none;stroke:#b22222;stroke-linecap:square;stroke-width:1.5;"/>
   </g>
   <g id="line2d_31">
    <path clip-path="url(#p91e18f747a)" d="M 110.731164 361 
L 111.69939 351.941184 
L 113.492426 337.240779 
L 115.285461 324.356628 
L 117.078497 313.029585 
L 118.871533 303.000501 
L 120.664568 294.01023 
L 122.457604 285.799626 
L 126.043675 270.939526 
L 127.836711 264.23046 
L 129.629746 258.013683 
L 131.422782 252.298011 
L 133.215817 247.092264 
L 135.008853 242.39779 
L 136.801889 238.137166 
L 140.38796 230.418146 
L 143.974031 222.933353 
L 151.146174 207.066671 
L 152.939209 203.702973 
L 154.732245 200.953628 
L 156.52528 198.994539 
L 158.318316 197.739503 
L 161.904387 195.90781 
L 163.697423 194.595857 
L 165.490458 192.529634 
L 167.283494 189.34995 
L 169.07653 185.05145 
L 174.455636 170.269846 
L 176.248672 166.389448 
L 178.041708 163.866428 
L 179.834743 162.870679 
L 181.627779 162.992477 
L 183.420814 163.7631 
L 185.21385 164.713827 
L 187.006886 165.375933 
L 188.799921 165.281462 
L 190.592957 164.163963 
L 192.385993 162.22771 
L 194.179028 159.744075 
L 197.765099 154.220157 
L 199.558135 151.722585 
L 201.351171 149.677586 
L 203.144206 148.003005 
L 206.730277 145.226861 
L 208.523313 143.85618 
L 210.316349 142.317681 
L 215.695455 136.984202 
L 217.488491 135.688666 
L 219.281527 135.027911 
L 221.074562 135.238115 
L 222.867598 136.478106 
L 224.660633 138.458514 
L 228.246705 142.838774 
L 230.03974 144.337407 
L 231.832776 144.774227 
L 233.625812 143.764227 
L 235.418847 141.447248 
L 237.211883 138.214998 
L 242.59099 126.959631 
L 244.384025 123.974753 
L 246.177061 121.713534 
L 247.970096 120.089832 
L 249.763132 119.014708 
L 251.556168 118.399222 
L 253.349203 118.154434 
L 255.142239 118.191831 
L 256.935274 118.430081 
L 264.107417 119.88591 
L 265.900452 120.001236 
L 267.693488 119.912986 
L 269.486524 119.638528 
L 271.279559 119.197593 
L 273.072595 118.609913 
L 276.658666 117.073954 
L 280.244737 115.377081 
L 282.037773 114.709793 
L 283.830809 114.304578 
L 285.623844 114.267417 
L 287.41688 114.703122 
L 289.209915 115.594456 
L 292.795987 117.741028 
L 294.589022 118.457563 
L 296.382058 118.577128 
L 298.175093 117.830834 
L 299.968129 116.115364 
L 301.761165 113.737216 
L 305.347236 108.468106 
L 307.140271 106.314754 
L 308.933307 104.97392 
L 310.726343 104.682054 
L 312.519378 105.234795 
L 314.312414 106.336106 
L 317.898485 109.000287 
L 319.691521 109.971083 
L 321.484556 110.361368 
L 323.277592 110.179159 
L 325.070628 109.502818 
L 326.863663 108.410706 
L 328.656699 106.981189 
L 330.449734 105.292629 
L 337.621877 97.851046 
L 339.414912 96.377479 
L 341.207948 95.285591 
L 343.000984 94.676597 
L 344.794019 94.546779 
L 346.587055 94.839149 
L 348.38009 95.496299 
L 350.173126 96.460821 
L 351.966162 97.675308 
L 357.345269 101.94442 
L 359.138304 103.101433 
L 360.93134 103.869185 
L 362.724375 104.093861 
L 364.517411 103.632879 
L 366.310447 102.549301 
L 371.689553 98.017871 
L 373.482589 96.910947 
L 375.275625 96.415821 
L 377.06866 96.622351 
L 378.861696 97.444365 
L 380.654731 98.786073 
L 382.447767 100.551686 
L 384.240803 102.645414 
L 389.61991 109.610948 
L 391.412945 111.438902 
L 393.205981 112.608904 
L 394.999016 112.873648 
L 396.792052 111.987534 
L 398.585088 109.922278 
L 400.378123 107.077619 
L 403.964194 100.849132 
L 405.75723 98.364823 
L 407.550266 96.899731 
L 409.343301 96.690675 
L 411.136337 97.41681 
L 416.515444 101.094277 
L 418.308479 101.449102 
L 420.101515 100.835927 
L 421.89455 99.537385 
L 425.480622 96.493314 
L 427.273657 95.552345 
L 429.066693 95.535124 
L 430.859729 96.720411 
L 432.652764 98.793028 
L 436.238835 103.626317 
L 438.031871 105.39997 
L 439.824907 106.086951 
L 441.617942 105.283772 
L 443.410978 103.179056 
L 445.204013 100.200643 
L 448.790085 93.336763 
L 450.58312 90.308315 
L 452.376156 88.084315 
L 454.169191 86.728505 
L 455.962227 86.128045 
L 457.755263 86.168405 
L 459.548298 86.735053 
L 461.341334 87.713458 
L 463.134369 88.988711 
L 468.513476 93.382409 
L 470.306512 94.624709 
L 472.099548 95.55005 
L 473.892583 96.040484 
L 475.685619 96.089039 
L 477.478654 95.7912 
L 479.27169 95.246292 
L 486.443832 92.54769 
L 488.236868 92.121226 
L 490.029904 91.869823 
L 491.822939 91.821233 
L 493.615975 92.00321 
L 495.40901 92.442942 
L 497.202046 93.132132 
L 500.788117 94.996704 
L 504.374188 97.047872 
L 506.167224 97.970358 
L 507.96026 98.740208 
L 509.753295 99.313993 
L 511.546331 99.650463 
L 513.339367 99.708366 
L 515.132402 99.446453 
L 516.925438 98.823539 
L 518.718473 97.849808 
L 524.09758 94.453934 
L 525.890616 93.756507 
L 527.683651 93.572724 
L 529.476687 94.001307 
L 531.269723 94.843336 
L 534.855794 96.692098 
L 536.648829 97.161013 
L 538.441865 96.967739 
L 540.234901 95.923944 
L 542.027936 94.253422 
L 545.614007 90.453101 
L 547.407043 89.033838 
L 549.200079 88.408865 
L 550.993114 88.864603 
L 552.78615 90.204501 
L 556.372221 93.922788 
L 558.165257 95.493006 
L 559.958292 96.331825 
L 561.751328 96.083565 
L 563.544364 94.868081 
L 565.337399 93.075133 
L 567.130435 91.097583 
L 568.92347 89.328289 
L 570.716506 88.160112 
L 572.509542 87.957176 
L 574.302577 88.673803 
L 576.095613 89.958864 
L 577.888648 91.45393 
L 579.681684 92.80057 
L 581.47472 93.640356 
L 583.267755 93.629485 
L 585.060791 92.745018 
L 586.853826 91.276446 
L 590.439898 87.796719 
L 592.232933 86.390431 
L 594.025969 85.604471 
L 595.819005 85.539466 
L 597.61204 86.046201 
L 599.405076 86.959299 
L 604.784183 90.483711 
L 606.577218 91.424087 
L 608.370254 92.14207 
L 610.163289 92.623978 
L 611.956325 92.856131 
L 613.749361 92.824849 
L 615.542396 92.516582 
L 617.335432 91.944282 
L 620.921503 90.301027 
L 624.507574 88.521005 
L 626.30061 87.777745 
L 628.093645 87.237941 
L 629.886681 86.980807 
L 631.679717 87.085559 
L 633.472752 87.631414 
L 635.265788 88.697587 
L 637.058824 90.363293 
L 637.058824 90.363293 
" style="fill:none;stroke:#7f7f7f;stroke-linecap:square;stroke-width:1.5;"/>
   </g>
   <g id="patch_3">
    <path d="M 90 320.4 
L 90 43.2 
" style="fill:none;stroke:#000000;stroke-linecap:square;stroke-linejoin:miter;stroke-width:0.8;"/>
   </g>
   <g id="patch_4">
    <path d="M 648 320.4 
L 648 43.2 
" style="fill:none;stroke:#000000;stroke-linecap:square;stroke-linejoin:miter;stroke-width:0.8;"/>
   </g>
   <g id="patch_5">
    <path d="M 90 320.4 
L 648 320.4 
" style="fill:none;stroke:#000000;stroke-linecap:square;stroke-linejoin:miter;stroke-width:0.8;"/>
   </g>
   <g id="patch_6">
    <path d="M 90 43.2 
L 648 43.2 
" style="fill:none;stroke:#000000;stroke-linecap:square;stroke-linejoin:miter;stroke-width:0.8;"/>
   </g>
   <g id="legend_1">
    <g id="patch_7">
     <path d="M 97 134.26875 
L 214.175625 134.26875 
Q 216.175625 134.26875 216.175625 132.26875 
L 216.175625 50.2 
Q 216.175625 48.2 214.175625 48.2 
L 97 48.2 
Q 95 48.2 95 50.2 
L 95 132.26875 
Q 95 134.26875 97 134.26875 
z
" style="fill:#ffffff;opacity:0.8;stroke:#cccccc;stroke-linejoin:miter;"/>
    </g>
    <g id="line2d_32">
     <path d="M 99 57.818125 
L 119 57.818125 
" style="fill:none;stroke:#ff8c00;stroke-linecap:square;stroke-width:1.5;"/>
    </g>
    <g id="line2d_33"/>
    <g id="text_16">
     <!-- dropout=0 -->
     <g transform="translate(127 61.318125)scale(0.12 -0.12)">
      <defs>
       <path d="M 45.609375 46.6875 
L 45.609375 75.984375 
L 63.1875 75.984375 
L 63.1875 0 
L 45.609375 0 
L 45.609375 7.90625 
Q 42 3.078125 37.640625 0.828125 
Q 33.296875 -1.421875 27.59375 -1.421875 
Q 17.484375 -1.421875 10.984375 6.609375 
Q 4.5 14.65625 4.5 27.296875 
Q 4.5 39.9375 10.984375 47.96875 
Q 17.484375 56 27.59375 56 
Q 33.25 56 37.625 53.734375 
Q 42 51.46875 45.609375 46.6875 
z
M 34.078125 11.28125 
Q 39.703125 11.28125 42.65625 15.375 
Q 45.609375 19.484375 45.609375 27.296875 
Q 45.609375 35.109375 42.65625 39.203125 
Q 39.703125 43.3125 34.078125 43.3125 
Q 28.515625 43.3125 25.5625 39.203125 
Q 22.609375 35.109375 22.609375 27.296875 
Q 22.609375 19.484375 25.5625 15.375 
Q 28.515625 11.28125 34.078125 11.28125 
z
" id="DejaVuSans-Bold-100"/>
       <path d="M 25.875 7.90625 
L 25.875 -20.796875 
L 8.40625 -20.796875 
L 8.40625 54.6875 
L 25.875 54.6875 
L 25.875 46.6875 
Q 29.5 51.46875 33.890625 53.734375 
Q 38.28125 56 44 56 
Q 54.109375 56 60.59375 47.96875 
Q 67.09375 39.9375 67.09375 27.296875 
Q 67.09375 14.65625 60.59375 6.609375 
Q 54.109375 -1.421875 44 -1.421875 
Q 38.28125 -1.421875 33.890625 0.84375 
Q 29.5 3.125 25.875 7.90625 
z
M 37.5 43.3125 
Q 31.890625 43.3125 28.875 39.1875 
Q 25.875 35.0625 25.875 27.296875 
Q 25.875 19.53125 28.875 15.40625 
Q 31.890625 11.28125 37.5 11.28125 
Q 43.109375 11.28125 46.0625 15.375 
Q 49.03125 19.484375 49.03125 27.296875 
Q 49.03125 35.109375 46.0625 39.203125 
Q 43.109375 43.3125 37.5 43.3125 
z
" id="DejaVuSans-Bold-112"/>
       <path d="M 7.8125 21.296875 
L 7.8125 54.6875 
L 25.390625 54.6875 
L 25.390625 49.21875 
Q 25.390625 44.78125 25.34375 38.0625 
Q 25.296875 31.34375 25.296875 29.109375 
Q 25.296875 22.515625 25.640625 19.609375 
Q 25.984375 16.703125 26.8125 15.375 
Q 27.875 13.671875 29.609375 12.734375 
Q 31.34375 11.8125 33.59375 11.8125 
Q 39.0625 11.8125 42.1875 16.015625 
Q 45.3125 20.21875 45.3125 27.6875 
L 45.3125 54.6875 
L 62.796875 54.6875 
L 62.796875 0 
L 45.3125 0 
L 45.3125 7.90625 
Q 41.359375 3.125 36.9375 0.84375 
Q 32.515625 -1.421875 27.203125 -1.421875 
Q 17.71875 -1.421875 12.765625 4.390625 
Q 7.8125 10.203125 7.8125 21.296875 
z
" id="DejaVuSans-Bold-117"/>
       <path d="M 10.59375 48.1875 
L 73.1875 48.1875 
L 73.1875 36.71875 
L 10.59375 36.71875 
z
M 10.59375 25.984375 
L 73.1875 25.984375 
L 73.1875 14.40625 
L 10.59375 14.40625 
z
" id="DejaVuSans-Bold-61"/>
      </defs>
      <use xlink:href="#DejaVuSans-Bold-100"/>
      <use x="71.582031" xlink:href="#DejaVuSans-Bold-114"/>
      <use x="120.898438" xlink:href="#DejaVuSans-Bold-111"/>
      <use x="189.599609" xlink:href="#DejaVuSans-Bold-112"/>
      <use x="261.181641" xlink:href="#DejaVuSans-Bold-111"/>
      <use x="329.882812" xlink:href="#DejaVuSans-Bold-117"/>
      <use x="401.074219" xlink:href="#DejaVuSans-Bold-116"/>
      <use x="448.876953" xlink:href="#DejaVuSans-Bold-61"/>
      <use x="532.666016" xlink:href="#DejaVuSans-Bold-48"/>
     </g>
    </g>
    <g id="line2d_34">
     <path d="M 99 74.431875 
L 119 74.431875 
" style="fill:none;stroke:#228b22;stroke-linecap:square;stroke-width:1.5;"/>
    </g>
    <g id="line2d_35"/>
    <g id="text_17">
     <!-- dropout=0.2 -->
     <g transform="translate(127 77.931875)scale(0.12 -0.12)">
      <use xlink:href="#DejaVuSans-Bold-100"/>
      <use x="71.582031" xlink:href="#DejaVuSans-Bold-114"/>
      <use x="120.898438" xlink:href="#DejaVuSans-Bold-111"/>
      <use x="189.599609" xlink:href="#DejaVuSans-Bold-112"/>
      <use x="261.181641" xlink:href="#DejaVuSans-Bold-111"/>
      <use x="329.882812" xlink:href="#DejaVuSans-Bold-117"/>
      <use x="401.074219" xlink:href="#DejaVuSans-Bold-116"/>
      <use x="448.876953" xlink:href="#DejaVuSans-Bold-61"/>
      <use x="532.666016" xlink:href="#DejaVuSans-Bold-48"/>
      <use x="602.246094" xlink:href="#DejaVuSans-Bold-46"/>
      <use x="640.234375" xlink:href="#DejaVuSans-Bold-50"/>
     </g>
    </g>
    <g id="line2d_36">
     <path d="M 99 91.045625 
L 119 91.045625 
" style="fill:none;stroke:#1f77b4;stroke-linecap:square;stroke-width:1.5;"/>
    </g>
    <g id="line2d_37"/>
    <g id="text_18">
     <!-- dropout=0.4 -->
     <g transform="translate(127 94.545625)scale(0.12 -0.12)">
      <use xlink:href="#DejaVuSans-Bold-100"/>
      <use x="71.582031" xlink:href="#DejaVuSans-Bold-114"/>
      <use x="120.898438" xlink:href="#DejaVuSans-Bold-111"/>
      <use x="189.599609" xlink:href="#DejaVuSans-Bold-112"/>
      <use x="261.181641" xlink:href="#DejaVuSans-Bold-111"/>
      <use x="329.882812" xlink:href="#DejaVuSans-Bold-117"/>
      <use x="401.074219" xlink:href="#DejaVuSans-Bold-116"/>
      <use x="448.876953" xlink:href="#DejaVuSans-Bold-61"/>
      <use x="532.666016" xlink:href="#DejaVuSans-Bold-48"/>
      <use x="602.246094" xlink:href="#DejaVuSans-Bold-46"/>
      <use x="640.234375" xlink:href="#DejaVuSans-Bold-52"/>
     </g>
    </g>
    <g id="line2d_38">
     <path d="M 99 107.659375 
L 119 107.659375 
" style="fill:none;stroke:#b22222;stroke-linecap:square;stroke-width:1.5;"/>
    </g>
    <g id="line2d_39"/>
    <g id="text_19">
     <!-- dropout=0.6 -->
     <g transform="translate(127 111.159375)scale(0.12 -0.12)">
      <use xlink:href="#DejaVuSans-Bold-100"/>
      <use x="71.582031" xlink:href="#DejaVuSans-Bold-114"/>
      <use x="120.898438" xlink:href="#DejaVuSans-Bold-111"/>
      <use x="189.599609" xlink:href="#DejaVuSans-Bold-112"/>
      <use x="261.181641" xlink:href="#DejaVuSans-Bold-111"/>
      <use x="329.882812" xlink:href="#DejaVuSans-Bold-117"/>
      <use x="401.074219" xlink:href="#DejaVuSans-Bold-116"/>
      <use x="448.876953" xlink:href="#DejaVuSans-Bold-61"/>
      <use x="532.666016" xlink:href="#DejaVuSans-Bold-48"/>
      <use x="602.246094" xlink:href="#DejaVuSans-Bold-46"/>
      <use x="640.234375" xlink:href="#DejaVuSans-Bold-54"/>
     </g>
    </g>
    <g id="line2d_40">
     <path d="M 99 124.273125 
L 119 124.273125 
" style="fill:none;stroke:#7f7f7f;stroke-linecap:square;stroke-width:1.5;"/>
    </g>
    <g id="line2d_41"/>
    <g id="text_20">
     <!-- dropout=0.8 -->
     <g transform="translate(127 127.773125)scale(0.12 -0.12)">
      <use xlink:href="#DejaVuSans-Bold-100"/>
      <use x="71.582031" xlink:href="#DejaVuSans-Bold-114"/>
      <use x="120.898438" xlink:href="#DejaVuSans-Bold-111"/>
      <use x="189.599609" xlink:href="#DejaVuSans-Bold-112"/>
      <use x="261.181641" xlink:href="#DejaVuSans-Bold-111"/>
      <use x="329.882812" xlink:href="#DejaVuSans-Bold-117"/>
      <use x="401.074219" xlink:href="#DejaVuSans-Bold-116"/>
      <use x="448.876953" xlink:href="#DejaVuSans-Bold-61"/>
      <use x="532.666016" xlink:href="#DejaVuSans-Bold-48"/>
      <use x="602.246094" xlink:href="#DejaVuSans-Bold-46"/>
      <use x="640.234375" xlink:href="#DejaVuSans-Bold-56"/>
     </g>
    </g>
   </g>
  </g>
 </g>
 <defs>
  <clipPath id="p91e18f747a">
   <rect height="277.2" width="558" x="90" y="43.2"/>
  </clipPath>
 </defs>
</svg>
