<?xml version="1.0" encoding="utf-8" standalone="no"?>
<!DOCTYPE svg PUBLIC "-//W3C//DTD SVG 1.1//EN"
  "http://www.w3.org/Graphics/SVG/1.1/DTD/svg11.dtd">
<!-- Created with matplotlib (https://matplotlib.org/) -->
<svg height="360pt" version="1.1" viewBox="0 0 720 360" width="720pt" xmlns="http://www.w3.org/2000/svg" xmlns:xlink="http://www.w3.org/1999/xlink">
 <metadata>
  <rdf:RDF xmlns:cc="http://creativecommons.org/ns#" xmlns:dc="http://purl.org/dc/elements/1.1/" xmlns:rdf="http://www.w3.org/1999/02/22-rdf-syntax-ns#">
   <cc:Work>
    <dc:type rdf:resource="http://purl.org/dc/dcmitype/StillImage"/>
    <dc:date>2020-12-21T15:10:10.883245</dc:date>
    <dc:format>image/svg+xml</dc:format>
    <dc:creator>
     <cc:Agent>
      <dc:title>Matplotlib v3.3.0, https://matplotlib.org/</dc:title>
     </cc:Agent>
    </dc:creator>
   </cc:Work>
  </rdf:RDF>
 </metadata>
 <defs>
  <style type="text/css">*{stroke-linecap:butt;stroke-linejoin:round;}</style>
 </defs>
 <g id="figure_1">
  <g id="patch_1">
   <path d="M 0 360 
L 720 360 
L 720 0 
L 0 0 
z
" style="fill:#ffffff;"/>
  </g>
  <g id="axes_1">
   <g id="patch_2">
    <path d="M 90 320.4 
L 648 320.4 
L 648 43.2 
L 90 43.2 
z
" style="fill:#ffffff;"/>
   </g>
   <g id="matplotlib.axis_1">
    <g id="xtick_1">
     <g id="line2d_1">
      <path clip-path="url(#p1575b421a7)" d="M 90 320.4 
L 90 43.2 
" style="fill:none;stroke:#b0b0b0;stroke-dasharray:2.96,1.28;stroke-dashoffset:0;stroke-width:0.8;"/>
     </g>
     <g id="line2d_2">
      <defs>
       <path d="M 0 0 
L 0 3.5 
" id="meddeecf046" style="stroke:#000000;stroke-width:0.8;"/>
      </defs>
      <g>
       <use style="stroke:#000000;stroke-width:0.8;" x="90" xlink:href="#meddeecf046" y="320.4"/>
      </g>
     </g>
     <g id="text_1">
      <!-- 0 -->
      <g transform="translate(85.825312 336.518125)scale(0.12 -0.12)">
       <defs>
        <path d="M 46 36.53125 
Q 46 50.203125 43.4375 55.78125 
Q 40.875 61.375 34.8125 61.375 
Q 28.765625 61.375 26.171875 55.78125 
Q 23.578125 50.203125 23.578125 36.53125 
Q 23.578125 22.703125 26.171875 17.03125 
Q 28.765625 11.375 34.8125 11.375 
Q 40.828125 11.375 43.40625 17.03125 
Q 46 22.703125 46 36.53125 
z
M 64.796875 36.375 
Q 64.796875 18.265625 56.984375 8.421875 
Q 49.171875 -1.421875 34.8125 -1.421875 
Q 20.40625 -1.421875 12.59375 8.421875 
Q 4.78125 18.265625 4.78125 36.375 
Q 4.78125 54.546875 12.59375 64.375 
Q 20.40625 74.21875 34.8125 74.21875 
Q 49.171875 74.21875 56.984375 64.375 
Q 64.796875 54.546875 64.796875 36.375 
z
" id="DejaVuSans-Bold-48"/>
       </defs>
       <use xlink:href="#DejaVuSans-Bold-48"/>
      </g>
     </g>
    </g>
    <g id="xtick_2">
     <g id="line2d_3">
      <path clip-path="url(#p1575b421a7)" d="M 199.411765 320.4 
L 199.411765 43.2 
" style="fill:none;stroke:#b0b0b0;stroke-dasharray:2.96,1.28;stroke-dashoffset:0;stroke-width:0.8;"/>
     </g>
     <g id="line2d_4">
      <g>
       <use style="stroke:#000000;stroke-width:0.8;" x="199.411765" xlink:href="#meddeecf046" y="320.4"/>
      </g>
     </g>
     <g id="text_2">
      <!-- 10 -->
      <g transform="translate(191.06239 336.518125)scale(0.12 -0.12)">
       <defs>
        <path d="M 11.71875 12.984375 
L 28.328125 12.984375 
L 28.328125 60.109375 
L 11.28125 56.59375 
L 11.28125 69.390625 
L 28.21875 72.90625 
L 46.09375 72.90625 
L 46.09375 12.984375 
L 62.703125 12.984375 
L 62.703125 0 
L 11.71875 0 
z
" id="DejaVuSans-Bold-49"/>
       </defs>
       <use xlink:href="#DejaVuSans-Bold-49"/>
       <use x="69.580078" xlink:href="#DejaVuSans-Bold-48"/>
      </g>
     </g>
    </g>
    <g id="xtick_3">
     <g id="line2d_5">
      <path clip-path="url(#p1575b421a7)" d="M 308.823529 320.4 
L 308.823529 43.2 
" style="fill:none;stroke:#b0b0b0;stroke-dasharray:2.96,1.28;stroke-dashoffset:0;stroke-width:0.8;"/>
     </g>
     <g id="line2d_6">
      <g>
       <use style="stroke:#000000;stroke-width:0.8;" x="308.823529" xlink:href="#meddeecf046" y="320.4"/>
      </g>
     </g>
     <g id="text_3">
      <!-- 20 -->
      <g transform="translate(300.474154 336.518125)scale(0.12 -0.12)">
       <defs>
        <path d="M 28.8125 13.8125 
L 60.890625 13.8125 
L 60.890625 0 
L 7.90625 0 
L 7.90625 13.8125 
L 34.515625 37.3125 
Q 38.09375 40.53125 39.796875 43.609375 
Q 41.5 46.6875 41.5 50 
Q 41.5 55.125 38.0625 58.25 
Q 34.625 61.375 28.90625 61.375 
Q 24.515625 61.375 19.28125 59.5 
Q 14.0625 57.625 8.109375 53.90625 
L 8.109375 69.921875 
Q 14.453125 72.015625 20.65625 73.109375 
Q 26.859375 74.21875 32.8125 74.21875 
Q 45.90625 74.21875 53.15625 68.453125 
Q 60.40625 62.703125 60.40625 52.390625 
Q 60.40625 46.4375 57.328125 41.28125 
Q 54.25 36.140625 44.390625 27.484375 
z
" id="DejaVuSans-Bold-50"/>
       </defs>
       <use xlink:href="#DejaVuSans-Bold-50"/>
       <use x="69.580078" xlink:href="#DejaVuSans-Bold-48"/>
      </g>
     </g>
    </g>
    <g id="xtick_4">
     <g id="line2d_7">
      <path clip-path="url(#p1575b421a7)" d="M 418.235294 320.4 
L 418.235294 43.2 
" style="fill:none;stroke:#b0b0b0;stroke-dasharray:2.96,1.28;stroke-dashoffset:0;stroke-width:0.8;"/>
     </g>
     <g id="line2d_8">
      <g>
       <use style="stroke:#000000;stroke-width:0.8;" x="418.235294" xlink:href="#meddeecf046" y="320.4"/>
      </g>
     </g>
     <g id="text_4">
      <!-- 30 -->
      <g transform="translate(409.885919 336.518125)scale(0.12 -0.12)">
       <defs>
        <path d="M 46.578125 39.3125 
Q 53.953125 37.40625 57.78125 32.6875 
Q 61.625 27.984375 61.625 20.703125 
Q 61.625 9.859375 53.3125 4.21875 
Q 45.015625 -1.421875 29.109375 -1.421875 
Q 23.484375 -1.421875 17.84375 -0.515625 
Q 12.203125 0.390625 6.6875 2.203125 
L 6.6875 16.703125 
Q 11.96875 14.0625 17.15625 12.71875 
Q 22.359375 11.375 27.390625 11.375 
Q 34.859375 11.375 38.84375 13.953125 
Q 42.828125 16.546875 42.828125 21.390625 
Q 42.828125 26.375 38.75 28.9375 
Q 34.671875 31.5 26.703125 31.5 
L 19.1875 31.5 
L 19.1875 43.609375 
L 27.09375 43.609375 
Q 34.1875 43.609375 37.640625 45.828125 
Q 41.109375 48.046875 41.109375 52.59375 
Q 41.109375 56.78125 37.734375 59.078125 
Q 34.375 61.375 28.21875 61.375 
Q 23.6875 61.375 19.046875 60.34375 
Q 14.40625 59.328125 9.8125 57.328125 
L 9.8125 71.09375 
Q 15.375 72.65625 20.84375 73.4375 
Q 26.3125 74.21875 31.59375 74.21875 
Q 45.796875 74.21875 52.84375 69.546875 
Q 59.90625 64.890625 59.90625 55.515625 
Q 59.90625 49.125 56.53125 45.046875 
Q 53.171875 40.96875 46.578125 39.3125 
z
" id="DejaVuSans-Bold-51"/>
       </defs>
       <use xlink:href="#DejaVuSans-Bold-51"/>
       <use x="69.580078" xlink:href="#DejaVuSans-Bold-48"/>
      </g>
     </g>
    </g>
    <g id="xtick_5">
     <g id="line2d_9">
      <path clip-path="url(#p1575b421a7)" d="M 527.647059 320.4 
L 527.647059 43.2 
" style="fill:none;stroke:#b0b0b0;stroke-dasharray:2.96,1.28;stroke-dashoffset:0;stroke-width:0.8;"/>
     </g>
     <g id="line2d_10">
      <g>
       <use style="stroke:#000000;stroke-width:0.8;" x="527.647059" xlink:href="#meddeecf046" y="320.4"/>
      </g>
     </g>
     <g id="text_5">
      <!-- 40 -->
      <g transform="translate(519.297684 336.518125)scale(0.12 -0.12)">
       <defs>
        <path d="M 36.8125 57.421875 
L 16.21875 26.90625 
L 36.8125 26.90625 
z
M 33.6875 72.90625 
L 54.59375 72.90625 
L 54.59375 26.90625 
L 64.984375 26.90625 
L 64.984375 13.28125 
L 54.59375 13.28125 
L 54.59375 0 
L 36.8125 0 
L 36.8125 13.28125 
L 4.5 13.28125 
L 4.5 29.390625 
z
" id="DejaVuSans-Bold-52"/>
       </defs>
       <use xlink:href="#DejaVuSans-Bold-52"/>
       <use x="69.580078" xlink:href="#DejaVuSans-Bold-48"/>
      </g>
     </g>
    </g>
    <g id="xtick_6">
     <g id="line2d_11">
      <path clip-path="url(#p1575b421a7)" d="M 637.058824 320.4 
L 637.058824 43.2 
" style="fill:none;stroke:#b0b0b0;stroke-dasharray:2.96,1.28;stroke-dashoffset:0;stroke-width:0.8;"/>
     </g>
     <g id="line2d_12">
      <g>
       <use style="stroke:#000000;stroke-width:0.8;" x="637.058824" xlink:href="#meddeecf046" y="320.4"/>
      </g>
     </g>
     <g id="text_6">
      <!--  50 -->
      <g transform="translate(626.620699 336.518125)scale(0.12 -0.12)">
       <defs>
        <path id="DejaVuSans-Bold-32"/>
        <path d="M 10.59375 72.90625 
L 57.328125 72.90625 
L 57.328125 59.078125 
L 25.59375 59.078125 
L 25.59375 47.796875 
Q 27.734375 48.390625 29.90625 48.703125 
Q 32.078125 49.03125 34.421875 49.03125 
Q 47.75 49.03125 55.171875 42.359375 
Q 62.59375 35.6875 62.59375 23.78125 
Q 62.59375 11.96875 54.515625 5.265625 
Q 46.4375 -1.421875 32.078125 -1.421875 
Q 25.875 -1.421875 19.796875 -0.21875 
Q 13.71875 0.984375 7.71875 3.421875 
L 7.71875 18.21875 
Q 13.671875 14.796875 19.015625 13.078125 
Q 24.359375 11.375 29.109375 11.375 
Q 35.9375 11.375 39.859375 14.71875 
Q 43.796875 18.0625 43.796875 23.78125 
Q 43.796875 29.546875 39.859375 32.859375 
Q 35.9375 36.1875 29.109375 36.1875 
Q 25.046875 36.1875 20.453125 35.125 
Q 15.875 34.078125 10.59375 31.890625 
z
" id="DejaVuSans-Bold-53"/>
       </defs>
       <use xlink:href="#DejaVuSans-Bold-32"/>
       <use x="34.814453" xlink:href="#DejaVuSans-Bold-53"/>
       <use x="104.394531" xlink:href="#DejaVuSans-Bold-48"/>
      </g>
     </g>
    </g>
    <g id="text_7">
     <!-- Iterations -->
     <g transform="translate(333.177891 352.891719)scale(0.13 -0.13)">
      <defs>
       <path d="M 9.1875 72.90625 
L 27.984375 72.90625 
L 27.984375 0 
L 9.1875 0 
z
" id="DejaVuSans-Bold-73"/>
       <path d="M 27.484375 70.21875 
L 27.484375 54.6875 
L 45.515625 54.6875 
L 45.515625 42.1875 
L 27.484375 42.1875 
L 27.484375 19 
Q 27.484375 15.1875 29 13.84375 
Q 30.515625 12.5 35.015625 12.5 
L 44 12.5 
L 44 0 
L 29 0 
Q 18.65625 0 14.328125 4.3125 
Q 10.015625 8.640625 10.015625 19 
L 10.015625 42.1875 
L 1.3125 42.1875 
L 1.3125 54.6875 
L 10.015625 54.6875 
L 10.015625 70.21875 
z
" id="DejaVuSans-Bold-116"/>
       <path d="M 62.984375 27.484375 
L 62.984375 22.515625 
L 22.125 22.515625 
Q 22.75 16.359375 26.5625 13.28125 
Q 30.375 10.203125 37.203125 10.203125 
Q 42.71875 10.203125 48.5 11.84375 
Q 54.296875 13.484375 60.40625 16.796875 
L 60.40625 3.328125 
Q 54.203125 0.984375 48 -0.21875 
Q 41.796875 -1.421875 35.59375 -1.421875 
Q 20.75 -1.421875 12.515625 6.125 
Q 4.296875 13.671875 4.296875 27.296875 
Q 4.296875 40.671875 12.375 48.328125 
Q 20.453125 56 34.625 56 
Q 47.515625 56 55.25 48.234375 
Q 62.984375 40.484375 62.984375 27.484375 
z
M 45.015625 33.296875 
Q 45.015625 38.28125 42.109375 41.328125 
Q 39.203125 44.390625 34.515625 44.390625 
Q 29.4375 44.390625 26.265625 41.53125 
Q 23.09375 38.671875 22.3125 33.296875 
z
" id="DejaVuSans-Bold-101"/>
       <path d="M 49.03125 39.796875 
Q 46.734375 40.875 44.453125 41.375 
Q 42.1875 41.890625 39.890625 41.890625 
Q 33.15625 41.890625 29.515625 37.5625 
Q 25.875 33.25 25.875 25.203125 
L 25.875 0 
L 8.40625 0 
L 8.40625 54.6875 
L 25.875 54.6875 
L 25.875 45.703125 
Q 29.25 51.078125 33.609375 53.53125 
Q 37.984375 56 44.09375 56 
Q 44.96875 56 45.984375 55.921875 
Q 47.015625 55.859375 48.96875 55.609375 
z
" id="DejaVuSans-Bold-114"/>
       <path d="M 32.90625 24.609375 
Q 27.4375 24.609375 24.671875 22.75 
Q 21.921875 20.90625 21.921875 17.28125 
Q 21.921875 13.96875 24.140625 12.078125 
Q 26.375 10.203125 30.328125 10.203125 
Q 35.25 10.203125 38.625 13.734375 
Q 42 17.28125 42 22.609375 
L 42 24.609375 
z
M 59.625 31.203125 
L 59.625 0 
L 42 0 
L 42 8.109375 
Q 38.484375 3.125 34.078125 0.84375 
Q 29.6875 -1.421875 23.390625 -1.421875 
Q 14.890625 -1.421875 9.59375 3.53125 
Q 4.296875 8.5 4.296875 16.40625 
Q 4.296875 26.03125 10.90625 30.515625 
Q 17.53125 35.015625 31.6875 35.015625 
L 42 35.015625 
L 42 36.375 
Q 42 40.53125 38.71875 42.453125 
Q 35.453125 44.390625 28.515625 44.390625 
Q 22.90625 44.390625 18.0625 43.265625 
Q 13.234375 42.140625 9.078125 39.890625 
L 9.078125 53.21875 
Q 14.703125 54.59375 20.359375 55.296875 
Q 26.03125 56 31.6875 56 
Q 46.484375 56 53.046875 50.171875 
Q 59.625 44.34375 59.625 31.203125 
z
" id="DejaVuSans-Bold-97"/>
       <path d="M 8.40625 54.6875 
L 25.875 54.6875 
L 25.875 0 
L 8.40625 0 
z
M 8.40625 75.984375 
L 25.875 75.984375 
L 25.875 61.71875 
L 8.40625 61.71875 
z
" id="DejaVuSans-Bold-105"/>
       <path d="M 34.421875 43.5 
Q 28.609375 43.5 25.5625 39.328125 
Q 22.515625 35.15625 22.515625 27.296875 
Q 22.515625 19.4375 25.5625 15.25 
Q 28.609375 11.078125 34.421875 11.078125 
Q 40.140625 11.078125 43.15625 15.25 
Q 46.1875 19.4375 46.1875 27.296875 
Q 46.1875 35.15625 43.15625 39.328125 
Q 40.140625 43.5 34.421875 43.5 
z
M 34.421875 56 
Q 48.53125 56 56.46875 48.375 
Q 64.40625 40.765625 64.40625 27.296875 
Q 64.40625 13.8125 56.46875 6.1875 
Q 48.53125 -1.421875 34.421875 -1.421875 
Q 20.265625 -1.421875 12.28125 6.1875 
Q 4.296875 13.8125 4.296875 27.296875 
Q 4.296875 40.765625 12.28125 48.375 
Q 20.265625 56 34.421875 56 
z
" id="DejaVuSans-Bold-111"/>
       <path d="M 63.375 33.296875 
L 63.375 0 
L 45.796875 0 
L 45.796875 5.421875 
L 45.796875 25.484375 
Q 45.796875 32.5625 45.484375 35.25 
Q 45.171875 37.9375 44.390625 39.203125 
Q 43.359375 40.921875 41.59375 41.875 
Q 39.84375 42.828125 37.59375 42.828125 
Q 32.125 42.828125 29 38.59375 
Q 25.875 34.375 25.875 26.90625 
L 25.875 0 
L 8.40625 0 
L 8.40625 54.6875 
L 25.875 54.6875 
L 25.875 46.6875 
Q 29.828125 51.46875 34.265625 53.734375 
Q 38.71875 56 44.09375 56 
Q 53.5625 56 58.46875 50.1875 
Q 63.375 44.390625 63.375 33.296875 
z
" id="DejaVuSans-Bold-110"/>
       <path d="M 51.125 52.984375 
L 51.125 39.703125 
Q 45.515625 42.046875 40.28125 43.21875 
Q 35.0625 44.390625 30.421875 44.390625 
Q 25.4375 44.390625 23.015625 43.140625 
Q 20.609375 41.890625 20.609375 39.3125 
Q 20.609375 37.203125 22.4375 36.078125 
Q 24.265625 34.96875 29 34.421875 
L 32.078125 33.984375 
Q 45.515625 32.28125 50.140625 28.375 
Q 54.78125 24.46875 54.78125 16.109375 
Q 54.78125 7.375 48.328125 2.96875 
Q 41.890625 -1.421875 29.109375 -1.421875 
Q 23.6875 -1.421875 17.890625 -0.5625 
Q 12.109375 0.296875 6 2 
L 6 15.28125 
Q 11.234375 12.75 16.71875 11.46875 
Q 22.21875 10.203125 27.875 10.203125 
Q 33.015625 10.203125 35.59375 11.609375 
Q 38.1875 13.03125 38.1875 15.828125 
Q 38.1875 18.171875 36.40625 19.3125 
Q 34.625 20.453125 29.296875 21.09375 
L 26.21875 21.484375 
Q 14.546875 22.953125 9.859375 26.90625 
Q 5.171875 30.859375 5.171875 38.921875 
Q 5.171875 47.609375 11.125 51.796875 
Q 17.09375 56 29.390625 56 
Q 34.234375 56 39.546875 55.265625 
Q 44.875 54.546875 51.125 52.984375 
z
" id="DejaVuSans-Bold-115"/>
      </defs>
      <use xlink:href="#DejaVuSans-Bold-73"/>
      <use x="37.207031" xlink:href="#DejaVuSans-Bold-116"/>
      <use x="85.009766" xlink:href="#DejaVuSans-Bold-101"/>
      <use x="152.832031" xlink:href="#DejaVuSans-Bold-114"/>
      <use x="202.148438" xlink:href="#DejaVuSans-Bold-97"/>
      <use x="269.628906" xlink:href="#DejaVuSans-Bold-116"/>
      <use x="317.431641" xlink:href="#DejaVuSans-Bold-105"/>
      <use x="351.708984" xlink:href="#DejaVuSans-Bold-111"/>
      <use x="420.410156" xlink:href="#DejaVuSans-Bold-110"/>
      <use x="491.601562" xlink:href="#DejaVuSans-Bold-115"/>
     </g>
    </g>
   </g>
   <g id="matplotlib.axis_2">
    <g id="ytick_1">
     <g id="line2d_13">
      <path clip-path="url(#p1575b421a7)" d="M 90 320.4 
L 648 320.4 
" style="fill:none;stroke:#b0b0b0;stroke-dasharray:2.96,1.28;stroke-dashoffset:0;stroke-width:0.8;"/>
     </g>
     <g id="line2d_14">
      <defs>
       <path d="M 0 0 
L -3.5 0 
" id="m865da0f169" style="stroke:#000000;stroke-width:0.8;"/>
      </defs>
      <g>
       <use style="stroke:#000000;stroke-width:0.8;" x="90" xlink:href="#m865da0f169" y="320.4"/>
      </g>
     </g>
     <g id="text_8">
      <!-- 0.150 -->
      <g transform="translate(45.044375 324.959063)scale(0.12 -0.12)">
       <defs>
        <path d="M 10.203125 18.890625 
L 27.78125 18.890625 
L 27.78125 0 
L 10.203125 0 
z
" id="DejaVuSans-Bold-46"/>
       </defs>
       <use xlink:href="#DejaVuSans-Bold-48"/>
       <use x="69.580078" xlink:href="#DejaVuSans-Bold-46"/>
       <use x="107.568359" xlink:href="#DejaVuSans-Bold-49"/>
       <use x="177.148438" xlink:href="#DejaVuSans-Bold-53"/>
       <use x="246.728516" xlink:href="#DejaVuSans-Bold-48"/>
      </g>
     </g>
    </g>
    <g id="ytick_2">
     <g id="line2d_15">
      <path clip-path="url(#p1575b421a7)" d="M 90 285.75 
L 648 285.75 
" style="fill:none;stroke:#b0b0b0;stroke-dasharray:2.96,1.28;stroke-dashoffset:0;stroke-width:0.8;"/>
     </g>
     <g id="line2d_16">
      <g>
       <use style="stroke:#000000;stroke-width:0.8;" x="90" xlink:href="#m865da0f169" y="285.75"/>
      </g>
     </g>
     <g id="text_9">
      <!-- 0.175 -->
      <g transform="translate(45.044375 290.309063)scale(0.12 -0.12)">
       <defs>
        <path d="M 6.6875 72.90625 
L 61.625 72.90625 
L 61.625 62.3125 
L 33.203125 0 
L 14.890625 0 
L 41.796875 59.078125 
L 6.6875 59.078125 
z
" id="DejaVuSans-Bold-55"/>
       </defs>
       <use xlink:href="#DejaVuSans-Bold-48"/>
       <use x="69.580078" xlink:href="#DejaVuSans-Bold-46"/>
       <use x="107.568359" xlink:href="#DejaVuSans-Bold-49"/>
       <use x="177.148438" xlink:href="#DejaVuSans-Bold-55"/>
       <use x="246.728516" xlink:href="#DejaVuSans-Bold-53"/>
      </g>
     </g>
    </g>
    <g id="ytick_3">
     <g id="line2d_17">
      <path clip-path="url(#p1575b421a7)" d="M 90 251.1 
L 648 251.1 
" style="fill:none;stroke:#b0b0b0;stroke-dasharray:2.96,1.28;stroke-dashoffset:0;stroke-width:0.8;"/>
     </g>
     <g id="line2d_18">
      <g>
       <use style="stroke:#000000;stroke-width:0.8;" x="90" xlink:href="#m865da0f169" y="251.1"/>
      </g>
     </g>
     <g id="text_10">
      <!-- 0.200 -->
      <g transform="translate(45.044375 255.659063)scale(0.12 -0.12)">
       <use xlink:href="#DejaVuSans-Bold-48"/>
       <use x="69.580078" xlink:href="#DejaVuSans-Bold-46"/>
       <use x="107.568359" xlink:href="#DejaVuSans-Bold-50"/>
       <use x="177.148438" xlink:href="#DejaVuSans-Bold-48"/>
       <use x="246.728516" xlink:href="#DejaVuSans-Bold-48"/>
      </g>
     </g>
    </g>
    <g id="ytick_4">
     <g id="line2d_19">
      <path clip-path="url(#p1575b421a7)" d="M 90 216.45 
L 648 216.45 
" style="fill:none;stroke:#b0b0b0;stroke-dasharray:2.96,1.28;stroke-dashoffset:0;stroke-width:0.8;"/>
     </g>
     <g id="line2d_20">
      <g>
       <use style="stroke:#000000;stroke-width:0.8;" x="90" xlink:href="#m865da0f169" y="216.45"/>
      </g>
     </g>
     <g id="text_11">
      <!-- 0.225 -->
      <g transform="translate(45.044375 221.009062)scale(0.12 -0.12)">
       <use xlink:href="#DejaVuSans-Bold-48"/>
       <use x="69.580078" xlink:href="#DejaVuSans-Bold-46"/>
       <use x="107.568359" xlink:href="#DejaVuSans-Bold-50"/>
       <use x="177.148438" xlink:href="#DejaVuSans-Bold-50"/>
       <use x="246.728516" xlink:href="#DejaVuSans-Bold-53"/>
      </g>
     </g>
    </g>
    <g id="ytick_5">
     <g id="line2d_21">
      <path clip-path="url(#p1575b421a7)" d="M 90 181.8 
L 648 181.8 
" style="fill:none;stroke:#b0b0b0;stroke-dasharray:2.96,1.28;stroke-dashoffset:0;stroke-width:0.8;"/>
     </g>
     <g id="line2d_22">
      <g>
       <use style="stroke:#000000;stroke-width:0.8;" x="90" xlink:href="#m865da0f169" y="181.8"/>
      </g>
     </g>
     <g id="text_12">
      <!-- 0.250 -->
      <g transform="translate(45.044375 186.359062)scale(0.12 -0.12)">
       <use xlink:href="#DejaVuSans-Bold-48"/>
       <use x="69.580078" xlink:href="#DejaVuSans-Bold-46"/>
       <use x="107.568359" xlink:href="#DejaVuSans-Bold-50"/>
       <use x="177.148438" xlink:href="#DejaVuSans-Bold-53"/>
       <use x="246.728516" xlink:href="#DejaVuSans-Bold-48"/>
      </g>
     </g>
    </g>
    <g id="ytick_6">
     <g id="line2d_23">
      <path clip-path="url(#p1575b421a7)" d="M 90 147.15 
L 648 147.15 
" style="fill:none;stroke:#b0b0b0;stroke-dasharray:2.96,1.28;stroke-dashoffset:0;stroke-width:0.8;"/>
     </g>
     <g id="line2d_24">
      <g>
       <use style="stroke:#000000;stroke-width:0.8;" x="90" xlink:href="#m865da0f169" y="147.15"/>
      </g>
     </g>
     <g id="text_13">
      <!-- 0.275 -->
      <g transform="translate(45.044375 151.709062)scale(0.12 -0.12)">
       <use xlink:href="#DejaVuSans-Bold-48"/>
       <use x="69.580078" xlink:href="#DejaVuSans-Bold-46"/>
       <use x="107.568359" xlink:href="#DejaVuSans-Bold-50"/>
       <use x="177.148438" xlink:href="#DejaVuSans-Bold-55"/>
       <use x="246.728516" xlink:href="#DejaVuSans-Bold-53"/>
      </g>
     </g>
    </g>
    <g id="ytick_7">
     <g id="line2d_25">
      <path clip-path="url(#p1575b421a7)" d="M 90 112.5 
L 648 112.5 
" style="fill:none;stroke:#b0b0b0;stroke-dasharray:2.96,1.28;stroke-dashoffset:0;stroke-width:0.8;"/>
     </g>
     <g id="line2d_26">
      <g>
       <use style="stroke:#000000;stroke-width:0.8;" x="90" xlink:href="#m865da0f169" y="112.5"/>
      </g>
     </g>
     <g id="text_14">
      <!-- 0.300 -->
      <g transform="translate(45.044375 117.059062)scale(0.12 -0.12)">
       <use xlink:href="#DejaVuSans-Bold-48"/>
       <use x="69.580078" xlink:href="#DejaVuSans-Bold-46"/>
       <use x="107.568359" xlink:href="#DejaVuSans-Bold-51"/>
       <use x="177.148438" xlink:href="#DejaVuSans-Bold-48"/>
       <use x="246.728516" xlink:href="#DejaVuSans-Bold-48"/>
      </g>
     </g>
    </g>
    <g id="ytick_8">
     <g id="line2d_27">
      <path clip-path="url(#p1575b421a7)" d="M 90 77.85 
L 648 77.85 
" style="fill:none;stroke:#b0b0b0;stroke-dasharray:2.96,1.28;stroke-dashoffset:0;stroke-width:0.8;"/>
     </g>
     <g id="line2d_28">
      <g>
       <use style="stroke:#000000;stroke-width:0.8;" x="90" xlink:href="#m865da0f169" y="77.85"/>
      </g>
     </g>
     <g id="text_15">
      <!-- 0.325 -->
      <g transform="translate(45.044375 82.409062)scale(0.12 -0.12)">
       <use xlink:href="#DejaVuSans-Bold-48"/>
       <use x="69.580078" xlink:href="#DejaVuSans-Bold-46"/>
       <use x="107.568359" xlink:href="#DejaVuSans-Bold-51"/>
       <use x="177.148438" xlink:href="#DejaVuSans-Bold-50"/>
       <use x="246.728516" xlink:href="#DejaVuSans-Bold-53"/>
      </g>
     </g>
    </g>
    <g id="ytick_9">
     <g id="line2d_29">
      <path clip-path="url(#p1575b421a7)" d="M 90 43.2 
L 648 43.2 
" style="fill:none;stroke:#b0b0b0;stroke-dasharray:2.96,1.28;stroke-dashoffset:0;stroke-width:0.8;"/>
     </g>
     <g id="line2d_30">
      <g>
       <use style="stroke:#000000;stroke-width:0.8;" x="90" xlink:href="#m865da0f169" y="43.2"/>
      </g>
     </g>
     <g id="text_16">
      <!-- 0.350 -->
      <g transform="translate(45.044375 47.759063)scale(0.12 -0.12)">
       <use xlink:href="#DejaVuSans-Bold-48"/>
       <use x="69.580078" xlink:href="#DejaVuSans-Bold-46"/>
       <use x="107.568359" xlink:href="#DejaVuSans-Bold-51"/>
       <use x="177.148438" xlink:href="#DejaVuSans-Bold-53"/>
       <use x="246.728516" xlink:href="#DejaVuSans-Bold-48"/>
      </g>
     </g>
    </g>
    <g id="text_17">
     <!-- Recall@5 -->
     <g transform="translate(38.340781 214.932734)rotate(-90)scale(0.13 -0.13)">
      <defs>
       <path d="M 35.890625 40.578125 
Q 41.796875 40.578125 44.359375 42.765625 
Q 46.921875 44.96875 46.921875 50 
Q 46.921875 54.984375 44.359375 57.125 
Q 41.796875 59.28125 35.890625 59.28125 
L 27.984375 59.28125 
L 27.984375 40.578125 
z
M 27.984375 27.59375 
L 27.984375 0 
L 9.1875 0 
L 9.1875 72.90625 
L 37.890625 72.90625 
Q 52.296875 72.90625 59 68.0625 
Q 65.71875 63.234375 65.71875 52.78125 
Q 65.71875 45.5625 62.21875 40.921875 
Q 58.734375 36.28125 51.703125 34.078125 
Q 55.5625 33.203125 58.609375 30.09375 
Q 61.671875 27 64.796875 20.703125 
L 75 0 
L 54.984375 0 
L 46.09375 18.109375 
Q 43.40625 23.578125 40.640625 25.578125 
Q 37.890625 27.59375 33.296875 27.59375 
z
" id="DejaVuSans-Bold-82"/>
       <path d="M 52.59375 52.984375 
L 52.59375 38.71875 
Q 49.03125 41.15625 45.4375 42.328125 
Q 41.84375 43.5 37.984375 43.5 
Q 30.671875 43.5 26.59375 39.234375 
Q 22.515625 34.96875 22.515625 27.296875 
Q 22.515625 19.625 26.59375 15.34375 
Q 30.671875 11.078125 37.984375 11.078125 
Q 42.09375 11.078125 45.78125 12.296875 
Q 49.46875 13.53125 52.59375 15.921875 
L 52.59375 1.609375 
Q 48.484375 0.09375 44.265625 -0.65625 
Q 40.046875 -1.421875 35.796875 -1.421875 
Q 21 -1.421875 12.640625 6.171875 
Q 4.296875 13.765625 4.296875 27.296875 
Q 4.296875 40.828125 12.640625 48.40625 
Q 21 56 35.796875 56 
Q 40.09375 56 44.265625 55.25 
Q 48.4375 54.5 52.59375 52.984375 
z
" id="DejaVuSans-Bold-99"/>
       <path d="M 8.40625 75.984375 
L 25.875 75.984375 
L 25.875 0 
L 8.40625 0 
z
" id="DejaVuSans-Bold-108"/>
       <path d="M 40.578125 26.3125 
Q 40.578125 20.3125 43.140625 16.84375 
Q 45.703125 13.375 50.09375 13.375 
Q 54.4375 13.375 57.03125 16.859375 
Q 59.625 20.359375 59.625 26.3125 
Q 59.625 32.234375 57 35.671875 
Q 54.390625 39.109375 50 39.109375 
Q 45.703125 39.109375 43.140625 35.671875 
Q 40.578125 32.234375 40.578125 26.3125 
z
M 60.59375 11.625 
Q 59.125 8.15625 55.875 6.21875 
Q 52.640625 4.296875 48.296875 4.296875 
Q 39.890625 4.296875 34.640625 10.375 
Q 29.390625 16.453125 29.390625 26.21875 
Q 29.390625 35.984375 34.65625 42.078125 
Q 39.9375 48.1875 48.296875 48.1875 
Q 52.640625 48.1875 55.875 46.234375 
Q 59.125 44.28125 60.59375 40.828125 
L 60.59375 47.21875 
L 70.796875 47.21875 
L 70.796875 13.375 
Q 76.859375 14.3125 80.328125 19.21875 
Q 83.796875 24.125 83.796875 31.78125 
Q 83.796875 36.671875 82.375 40.9375 
Q 80.953125 45.21875 78.078125 48.78125 
Q 73.4375 54.734375 66.46875 57.953125 
Q 59.515625 61.1875 51.421875 61.1875 
Q 45.75 61.1875 40.578125 59.6875 
Q 35.40625 58.203125 31 55.328125 
Q 23.78125 50.53125 19.75 42.9375 
Q 15.71875 35.359375 15.71875 26.515625 
Q 15.71875 19.234375 18.328125 12.859375 
Q 20.953125 6.5 25.875 1.609375 
Q 30.765625 -3.171875 37.078125 -5.6875 
Q 43.40625 -8.203125 50.59375 -8.203125 
Q 56.734375 -8.203125 62.890625 -5.90625 
Q 69.046875 -3.609375 73.390625 0.296875 
L 78.609375 -7.625 
Q 72.515625 -12.359375 65.3125 -14.875 
Q 58.109375 -17.390625 50.6875 -17.390625 
Q 41.65625 -17.390625 33.640625 -14.1875 
Q 25.640625 -10.984375 19.390625 -4.890625 
Q 13.140625 1.21875 9.859375 9.25 
Q 6.59375 17.28125 6.59375 26.515625 
Q 6.59375 35.40625 9.90625 43.453125 
Q 13.234375 51.515625 19.390625 57.625 
Q 25.53125 63.671875 33.703125 66.984375 
Q 41.890625 70.3125 50.6875 70.3125 
Q 61.625 70.3125 70.5625 66.140625 
Q 79.5 61.96875 85.5 54.109375 
Q 89.15625 49.3125 91.03125 43.71875 
Q 92.921875 38.140625 92.921875 31.984375 
Q 92.921875 18.75 84.953125 11.421875 
Q 77 4.109375 62.5 4.109375 
L 60.59375 4.109375 
z
" id="DejaVuSans-Bold-64"/>
      </defs>
      <use xlink:href="#DejaVuSans-Bold-82"/>
      <use x="77.001953" xlink:href="#DejaVuSans-Bold-101"/>
      <use x="144.824219" xlink:href="#DejaVuSans-Bold-99"/>
      <use x="204.101562" xlink:href="#DejaVuSans-Bold-97"/>
      <use x="271.582031" xlink:href="#DejaVuSans-Bold-108"/>
      <use x="305.859375" xlink:href="#DejaVuSans-Bold-108"/>
      <use x="340.136719" xlink:href="#DejaVuSans-Bold-64"/>
      <use x="440.136719" xlink:href="#DejaVuSans-Bold-53"/>
     </g>
    </g>
   </g>
   <g id="line2d_31">
    <path clip-path="url(#p1575b421a7)" d="M 100.941176 291.948035 
L 102.734212 288.687436 
L 104.527248 285.0003 
L 106.320283 280.927628 
L 108.113319 276.510421 
L 111.69939 266.806402 
L 115.285461 256.216251 
L 120.664568 239.387034 
L 126.043675 222.461541 
L 129.629746 212.050109 
L 131.422782 207.389031 
L 133.215817 203.218216 
L 135.008853 199.62265 
L 136.801889 196.577712 
L 138.594924 193.993044 
L 140.38796 191.777392 
L 142.180995 189.839505 
L 145.767067 186.435968 
L 149.353138 183.372097 
L 151.146174 182.005083 
L 152.939209 180.778675 
L 154.732245 179.715868 
L 156.52528 178.837343 
L 163.697423 175.879722 
L 165.490458 174.806708 
L 167.283494 173.412485 
L 169.07653 171.703609 
L 174.455636 166.123519 
L 176.248672 164.609164 
L 178.041708 163.514916 
L 179.834743 162.888842 
L 181.627779 162.603121 
L 187.006886 162.330822 
L 188.799921 161.949487 
L 190.592957 161.241017 
L 192.385993 160.262348 
L 195.972064 157.802978 
L 199.558135 155.188499 
L 203.144206 152.859605 
L 208.523313 149.456473 
L 212.109384 146.793208 
L 219.281527 140.9406 
L 221.074562 139.678742 
L 222.867598 138.597505 
L 224.660633 137.690997 
L 226.453669 136.93483 
L 230.03974 135.775857 
L 235.418847 134.529334 
L 239.004918 133.557604 
L 240.797954 132.876749 
L 242.59099 131.997264 
L 244.384025 130.873949 
L 246.177061 129.532801 
L 249.763132 126.482132 
L 253.349203 123.419084 
L 255.142239 122.058935 
L 258.72831 119.736541 
L 265.900452 115.530795 
L 269.486524 113.269008 
L 271.279559 112.253274 
L 273.072595 111.413978 
L 274.865631 110.82587 
L 276.658666 110.562043 
L 278.451702 110.616953 
L 285.623844 111.60149 
L 287.41688 111.412633 
L 289.209915 110.853352 
L 291.002951 109.951797 
L 292.795987 108.746978 
L 294.589022 107.277907 
L 296.382058 105.583597 
L 299.968129 101.695975 
L 303.5542 97.749811 
L 305.347236 96.046378 
L 307.140271 94.679772 
L 308.933307 93.767778 
L 310.726343 93.387581 
L 312.519378 93.481105 
L 314.312414 93.962143 
L 316.10545 94.744492 
L 317.898485 95.741944 
L 323.277592 99.121054 
L 325.070628 100.014591 
L 326.863663 100.593473 
L 328.656699 100.738132 
L 330.449734 100.328996 
L 332.24277 99.278647 
L 334.035806 97.698075 
L 337.621877 93.69282 
L 339.414912 91.641642 
L 341.207948 89.807098 
L 343.000984 88.358102 
L 344.794019 87.310928 
L 346.587055 86.604351 
L 348.38009 86.176536 
L 350.173126 85.965649 
L 353.759197 85.951788 
L 355.552233 86.088607 
L 357.345269 86.353963 
L 359.138304 86.782175 
L 360.93134 87.40756 
L 362.724375 88.264437 
L 364.517411 89.381142 
L 368.103482 91.973659 
L 369.896518 93.092314 
L 371.689553 93.852303 
L 373.482589 94.07343 
L 375.275625 93.581432 
L 377.06866 92.377783 
L 378.861696 90.664729 
L 384.240803 84.601308 
L 386.033838 82.980972 
L 387.826874 81.813704 
L 389.61991 81.061544 
L 391.412945 80.674306 
L 393.205981 80.601803 
L 394.999016 80.793848 
L 396.792052 81.200151 
L 403.964194 83.420176 
L 405.75723 83.662037 
L 407.550266 83.592783 
L 409.343301 83.176589 
L 412.929372 81.783098 
L 414.722408 81.082043 
L 416.515444 80.562276 
L 418.308479 80.361914 
L 420.101515 80.57071 
L 421.89455 81.107202 
L 425.480622 82.685969 
L 427.273657 83.489594 
L 429.066693 84.143611 
L 430.859729 84.553644 
L 432.652764 84.74528 
L 436.238835 84.719769 
L 439.824907 84.559928 
L 443.410978 84.655199 
L 448.790085 84.918591 
L 450.58312 84.884431 
L 452.376156 84.728595 
L 455.962227 84.058171 
L 459.548298 83.007096 
L 464.927405 81.001043 
L 468.513476 79.780779 
L 470.306512 79.357172 
L 472.099548 79.126595 
L 473.892583 79.137657 
L 475.685619 79.380972 
L 479.27169 80.310637 
L 482.857761 81.398098 
L 486.443832 82.173893 
L 495.40901 83.505231 
L 500.788117 84.702577 
L 502.581153 84.90463 
L 504.374188 84.880911 
L 506.167224 84.555486 
L 507.96026 83.917468 
L 513.339367 81.442236 
L 515.132402 80.902108 
L 516.925438 80.740385 
L 518.718473 81.042058 
L 520.511509 81.734757 
L 522.304545 82.718953 
L 525.890616 85.163719 
L 529.476687 87.589709 
L 531.269723 88.603282 
L 533.062758 89.420561 
L 534.855794 89.996154 
L 536.648829 90.284672 
L 538.441865 90.240725 
L 540.234901 89.84048 
L 542.027936 89.170365 
L 547.407043 86.756716 
L 549.200079 86.223069 
L 550.993114 86.008672 
L 552.78615 86.083876 
L 554.579186 86.362364 
L 559.958292 87.552198 
L 561.751328 87.785515 
L 563.544364 87.872505 
L 567.130435 87.722601 
L 576.095613 86.821969 
L 577.888648 86.790799 
L 579.681684 86.880793 
L 581.47472 87.122706 
L 583.267755 87.544888 
L 586.853826 88.781226 
L 590.439898 90.026937 
L 592.232933 90.45871 
L 594.025969 90.660971 
L 595.819005 90.619216 
L 599.405076 90.064365 
L 602.991147 89.340925 
L 604.784183 89.087891 
L 608.370254 88.913789 
L 613.749361 88.838952 
L 615.542396 88.683722 
L 619.128467 88.061316 
L 624.507574 86.932044 
L 626.30061 86.668911 
L 628.093645 86.531367 
L 629.886681 86.56078 
L 631.679717 86.798515 
L 633.472752 87.285941 
L 635.265788 88.064423 
L 637.058824 89.175328 
L 637.058824 89.175328 
" style="fill:none;stroke:#ff8c00;stroke-linecap:square;stroke-width:1.5;"/>
   </g>
   <g id="line2d_32">
    <path clip-path="url(#p1575b421a7)" d="M 100.941176 302.569873 
L 102.734212 300.742469 
L 104.527248 298.306917 
L 106.320283 295.325305 
L 108.113319 291.859719 
L 109.906355 287.972246 
L 111.69939 283.724972 
L 115.285461 274.399372 
L 120.664568 259.26464 
L 126.043675 244.228546 
L 129.629746 234.972679 
L 131.422782 230.713173 
L 133.215817 226.760181 
L 135.008853 223.154167 
L 136.801889 219.880694 
L 138.594924 216.892392 
L 142.180995 211.580039 
L 145.767067 206.837292 
L 149.353138 202.501152 
L 151.146174 200.548464 
L 152.939209 198.780214 
L 154.732245 197.22704 
L 156.52528 195.917946 
L 158.318316 194.842448 
L 160.111352 193.949515 
L 163.697423 192.499824 
L 169.07653 190.394778 
L 172.662601 188.69277 
L 176.248672 186.706215 
L 183.420814 182.248411 
L 185.21385 181.367241 
L 187.006886 180.729259 
L 188.799921 180.409431 
L 190.592957 180.426978 
L 194.179028 181.011677 
L 195.972064 181.319726 
L 197.765099 181.465508 
L 199.558135 181.319487 
L 201.351171 180.794984 
L 203.144206 179.939697 
L 204.937242 178.8276 
L 208.523313 176.128871 
L 213.90242 171.934884 
L 217.488491 169.504159 
L 219.281527 168.461723 
L 221.074562 167.561882 
L 222.867598 166.818729 
L 226.453669 165.697338 
L 235.418847 163.35975 
L 239.004918 162.086237 
L 242.59099 160.532707 
L 251.556168 156.212213 
L 253.349203 155.654814 
L 255.142239 155.322561 
L 256.935274 155.207881 
L 260.521346 155.406041 
L 265.900452 155.911624 
L 267.693488 155.920756 
L 269.486524 155.790054 
L 271.279559 155.491325 
L 273.072595 154.996372 
L 274.865631 154.277004 
L 276.658666 153.306176 
L 280.244737 150.798755 
L 283.830809 148.262818 
L 285.623844 147.262229 
L 287.41688 146.587541 
L 289.209915 146.280582 
L 291.002951 146.255148 
L 294.589022 146.648153 
L 296.382058 146.866241 
L 298.175093 146.965256 
L 299.968129 146.883116 
L 303.5542 146.317405 
L 310.726343 144.864374 
L 314.312414 144.489094 
L 317.898485 144.360289 
L 323.277592 144.493237 
L 326.863663 144.51938 
L 328.656699 144.411401 
L 330.449734 144.176773 
L 334.035806 143.292487 
L 339.414912 141.736124 
L 341.207948 141.403192 
L 343.000984 141.257053 
L 346.587055 141.383699 
L 350.173126 141.633583 
L 351.966162 141.641181 
L 353.759197 141.488919 
L 357.345269 140.785077 
L 362.724375 139.555474 
L 366.310447 139.189327 
L 369.896518 139.011325 
L 371.689553 138.830038 
L 373.482589 138.500015 
L 375.275625 137.958568 
L 378.861696 136.404882 
L 380.654731 135.617455 
L 382.447767 134.976198 
L 384.240803 134.596031 
L 386.033838 134.59016 
L 387.826874 134.978257 
L 389.61991 135.640191 
L 394.999016 137.953249 
L 396.792052 138.395226 
L 398.585088 138.512253 
L 400.378123 138.34598 
L 402.171159 137.951446 
L 403.964194 137.383693 
L 407.550266 135.94868 
L 411.136337 134.453824 
L 414.722408 133.223349 
L 416.515444 132.802987 
L 418.308479 132.5636 
L 420.101515 132.524994 
L 423.687586 132.853179 
L 427.273657 133.321288 
L 429.066693 133.457588 
L 432.652764 133.360232 
L 439.824907 132.742776 
L 443.410978 132.835898 
L 448.790085 133.223073 
L 452.376156 133.197684 
L 455.962227 132.836525 
L 459.548298 132.432314 
L 463.134369 132.299658 
L 468.513476 132.43553 
L 470.306512 132.301509 
L 472.099548 131.957971 
L 473.892583 131.33864 
L 479.27169 128.71201 
L 481.064726 128.091773 
L 482.857761 127.856901 
L 484.650797 128.157516 
L 486.443832 128.994921 
L 488.236868 130.191067 
L 491.822939 132.904672 
L 493.615975 134.044678 
L 495.40901 134.790173 
L 497.202046 135.05842 
L 498.995082 134.931375 
L 500.788117 134.505512 
L 504.374188 133.143228 
L 507.96026 131.717027 
L 511.546331 130.596775 
L 515.132402 129.872388 
L 516.925438 129.684635 
L 520.511509 129.624021 
L 525.890616 129.69647 
L 527.683651 129.589709 
L 531.269723 129.030597 
L 538.441865 127.497563 
L 542.027936 127.074527 
L 545.614007 126.933283 
L 550.993114 127.019057 
L 556.372221 127.328563 
L 559.958292 127.73775 
L 568.92347 129.06857 
L 570.716506 129.105512 
L 572.509542 128.975943 
L 576.095613 128.339696 
L 579.681684 127.619062 
L 581.47472 127.385015 
L 583.267755 127.316572 
L 586.853826 127.612809 
L 590.439898 128.071777 
L 592.232933 128.204273 
L 594.025969 128.189078 
L 595.819005 128.010292 
L 599.405076 127.336372 
L 604.784183 126.231111 
L 608.370254 125.866408 
L 611.956325 125.833725 
L 615.542396 126.084177 
L 619.128467 126.556805 
L 631.679717 128.52265 
L 635.265788 128.747765 
L 637.058824 128.739745 
L 637.058824 128.739745 
" style="fill:none;stroke:#228b22;stroke-linecap:square;stroke-width:1.5;"/>
   </g>
   <g id="line2d_33">
    <path clip-path="url(#p1575b421a7)" d="M 100.941176 308.275757 
L 102.734212 306.827518 
L 104.527248 304.911277 
L 106.320283 302.585908 
L 108.113319 299.910285 
L 109.906355 296.943281 
L 113.492426 290.370626 
L 122.457604 272.960993 
L 126.043675 266.729566 
L 133.215817 254.855168 
L 136.801889 248.373429 
L 145.767067 231.692661 
L 149.353138 225.761333 
L 152.939209 220.496199 
L 154.732245 218.136338 
L 156.52528 215.969943 
L 158.318316 213.992548 
L 161.904387 210.532569 
L 165.490458 207.608956 
L 169.07653 205.08208 
L 172.662601 202.901207 
L 176.248672 201.06892 
L 179.834743 199.577554 
L 187.006886 196.934307 
L 190.592957 195.305884 
L 194.179028 193.323803 
L 197.765099 191.044965 
L 204.937242 186.239782 
L 206.730277 185.378187 
L 208.523313 184.831066 
L 210.316349 184.688248 
L 212.109384 184.996306 
L 213.90242 185.617871 
L 217.488491 187.05649 
L 219.281527 187.501027 
L 221.074562 187.514038 
L 222.867598 186.949646 
L 224.660633 185.895925 
L 226.453669 184.525011 
L 230.03974 181.52058 
L 231.832776 180.231551 
L 233.625812 179.295929 
L 235.418847 178.720562 
L 237.211883 178.441743 
L 239.004918 178.395322 
L 242.59099 178.743063 
L 246.177061 179.245965 
L 247.970096 179.385074 
L 249.763132 179.355897 
L 251.556168 179.088385 
L 253.349203 178.512484 
L 255.142239 177.564395 
L 256.935274 176.285298 
L 264.107417 170.451013 
L 265.900452 169.462592 
L 267.693488 168.78232 
L 271.279559 167.72818 
L 273.072595 167.034431 
L 274.865631 166.016306 
L 276.658666 164.516395 
L 278.451702 162.49765 
L 280.244737 160.093455 
L 287.41688 149.547848 
L 289.209915 147.359221 
L 291.002951 145.467058 
L 292.795987 143.862816 
L 294.589022 142.537955 
L 296.382058 141.483932 
L 298.175093 140.692089 
L 303.5542 138.970765 
L 305.347236 138.074675 
L 307.140271 136.739512 
L 308.933307 134.798547 
L 310.726343 132.186852 
L 316.10545 123.35149 
L 317.898485 121.222028 
L 319.691521 120.07494 
L 321.484556 120.141502 
L 323.277592 121.140031 
L 326.863663 124.226587 
L 328.656699 125.4614 
L 330.449734 125.921762 
L 332.24277 125.252082 
L 334.035806 123.535036 
L 335.828841 121.020321 
L 337.621877 117.957962 
L 343.000984 107.973507 
L 344.794019 105.084791 
L 346.587055 102.61066 
L 348.38009 100.637101 
L 350.173126 99.250106 
L 351.966162 98.535662 
L 353.759197 98.563197 
L 355.552233 99.199747 
L 360.93134 102.069981 
L 362.724375 102.444117 
L 364.517411 102.088894 
L 366.310447 100.991108 
L 368.103482 99.35138 
L 371.689553 95.277463 
L 373.482589 93.258958 
L 375.275625 91.526027 
L 377.06866 90.168699 
L 378.861696 89.146799 
L 380.654731 88.413037 
L 382.447767 87.920123 
L 384.240803 87.620769 
L 387.826874 87.418043 
L 396.792052 87.439367 
L 400.378123 87.008041 
L 412.929372 84.772937 
L 416.515444 83.945557 
L 418.308479 83.381355 
L 421.89455 81.910302 
L 427.273657 79.437189 
L 430.859729 78.105477 
L 432.652764 77.627736 
L 434.4458 77.285971 
L 436.238835 77.086275 
L 438.031871 77.034743 
L 439.824907 77.137467 
L 443.410978 77.737996 
L 446.997049 78.373649 
L 448.790085 78.497035 
L 450.58312 78.380055 
L 452.376156 77.954048 
L 455.962227 76.498593 
L 457.755263 75.737858 
L 459.548298 75.134709 
L 461.341334 74.823841 
L 463.134369 74.928748 
L 464.927405 75.425244 
L 466.720441 76.184844 
L 470.306512 77.970644 
L 472.099548 78.735489 
L 473.892583 79.244938 
L 475.685619 79.456762 
L 477.478654 79.406501 
L 479.27169 79.132609 
L 481.064726 78.673541 
L 484.650797 77.35373 
L 491.822939 74.221072 
L 493.615975 73.573795 
L 495.40901 73.062684 
L 497.202046 72.713889 
L 498.995082 72.530449 
L 500.788117 72.513367 
L 502.581153 72.663645 
L 504.374188 72.982285 
L 506.167224 73.47008 
L 511.546331 75.337099 
L 513.339367 75.734099 
L 515.132402 75.834152 
L 516.925438 75.526781 
L 518.718473 74.771647 
L 525.890616 70.707692 
L 527.683651 70.373631 
L 529.476687 70.621256 
L 531.269723 71.314329 
L 536.648829 74.100483 
L 538.441865 74.609592 
L 540.234901 74.624436 
L 542.027936 74.212387 
L 543.820972 73.511222 
L 549.200079 71.051073 
L 550.993114 70.553694 
L 552.78615 70.295778 
L 554.579186 70.219038 
L 558.165257 70.37512 
L 561.751328 70.559194 
L 570.716506 70.684377 
L 574.302577 71.079266 
L 577.888648 71.516908 
L 579.681684 71.622576 
L 581.47472 71.583756 
L 583.267755 71.351826 
L 586.853826 70.459689 
L 590.439898 69.597712 
L 592.232933 69.406286 
L 594.025969 69.494062 
L 595.819005 69.86703 
L 599.405076 71.063211 
L 601.198111 71.673507 
L 602.991147 72.149996 
L 604.784183 72.387142 
L 606.577218 72.347281 
L 608.370254 72.10592 
L 613.749361 71.035182 
L 615.542396 70.849958 
L 617.335432 70.852008 
L 620.921503 71.211304 
L 624.507574 71.637995 
L 626.30061 71.724286 
L 628.093645 71.644635 
L 629.886681 71.33811 
L 631.679717 70.743781 
L 633.472752 69.800718 
L 635.265788 68.44799 
L 637.058824 66.624667 
L 637.058824 66.624667 
" style="fill:none;stroke:#1f77b4;stroke-linecap:square;stroke-width:1.5;"/>
   </g>
   <g id="line2d_34">
    <path clip-path="url(#p1575b421a7)" d="M 100.941176 304.542684 
L 102.734212 303.945591 
L 104.527248 302.960539 
L 106.320283 301.61862 
L 108.113319 299.950921 
L 109.906355 297.988533 
L 111.69939 295.762544 
L 113.492426 293.304043 
L 117.078497 287.813866 
L 120.664568 281.766714 
L 126.043675 272.086185 
L 127.836711 268.583037 
L 129.629746 264.809951 
L 131.422782 260.684554 
L 133.215817 256.124473 
L 135.008853 251.047393 
L 136.801889 245.371605 
L 138.594924 239.015764 
L 140.38796 231.898528 
L 142.180995 223.938556 
L 143.974031 215.054508 
L 145.767067 205.187666 
L 151.146174 173.707697 
L 152.939209 164.491913 
L 154.732245 156.87062 
L 156.52528 151.393688 
L 158.318316 148.04218 
L 160.111352 146.213011 
L 161.904387 145.276464 
L 163.697423 144.602818 
L 165.490458 143.562358 
L 167.283494 141.535753 
L 169.07653 138.33834 
L 170.869565 134.368615 
L 174.455636 125.869778 
L 176.248672 122.219441 
L 178.041708 119.55143 
L 179.834743 118.048441 
L 181.627779 117.446059 
L 183.420814 117.434354 
L 187.006886 117.943258 
L 188.799921 117.8445 
L 190.592957 117.226838 
L 192.385993 116.211692 
L 197.765099 112.425644 
L 199.558135 111.464827 
L 201.351171 110.865172 
L 203.144206 110.52867 
L 206.730277 110.097498 
L 208.523313 109.729011 
L 210.316349 109.076045 
L 212.109384 108.045915 
L 215.695455 105.285618 
L 217.488491 103.846152 
L 219.281527 102.560944 
L 221.074562 101.575342 
L 222.867598 101.000216 
L 224.660633 100.746636 
L 228.246705 100.561171 
L 230.03974 100.307673 
L 231.832776 99.73259 
L 233.625812 98.70478 
L 237.211883 95.829728 
L 239.004918 94.423426 
L 240.797954 93.332383 
L 242.59099 92.777429 
L 244.384025 92.954064 
L 246.177061 93.770475 
L 251.556168 97.308466 
L 253.349203 97.928306 
L 255.142239 97.822855 
L 256.935274 96.994069 
L 258.72831 95.662148 
L 264.107417 90.915627 
L 265.900452 89.834656 
L 267.693488 89.253683 
L 269.486524 89.141292 
L 271.279559 89.459473 
L 273.072595 90.170215 
L 274.865631 91.235509 
L 276.658666 92.615868 
L 280.244737 95.783647 
L 282.037773 97.145362 
L 283.830809 98.070133 
L 285.623844 98.34134 
L 287.41688 97.743942 
L 289.209915 96.228111 
L 291.002951 94.051713 
L 296.382058 86.473577 
L 298.175093 84.569082 
L 299.968129 83.357099 
L 301.761165 82.768851 
L 303.5542 82.696584 
L 305.347236 83.032545 
L 307.140271 83.66898 
L 310.726343 85.418751 
L 314.312414 87.220241 
L 316.10545 87.950802 
L 317.898485 88.467697 
L 319.691521 88.695769 
L 321.484556 88.581922 
L 323.277592 88.17281 
L 325.070628 87.543266 
L 328.656699 85.922222 
L 332.24277 84.308194 
L 335.828841 82.984116 
L 341.207948 81.345757 
L 344.794019 80.384629 
L 346.587055 80.021368 
L 348.38009 79.80306 
L 350.173126 79.779809 
L 351.966162 80.001716 
L 353.759197 80.51108 
L 357.345269 82.116139 
L 360.93134 83.719258 
L 362.724375 84.225026 
L 364.517411 84.381883 
L 366.310447 84.180856 
L 368.103482 83.703479 
L 371.689553 82.258046 
L 375.275625 80.720405 
L 384.240803 77.512937 
L 387.826874 75.751291 
L 389.61991 74.856649 
L 391.412945 74.129348 
L 393.205981 73.703853 
L 394.999016 73.714629 
L 396.792052 74.295242 
L 398.585088 75.465075 
L 400.378123 77.018609 
L 403.964194 80.349574 
L 405.75723 81.663404 
L 407.550266 82.433927 
L 409.343301 82.529135 
L 411.136337 82.078368 
L 412.929372 81.253314 
L 418.308479 78.249297 
L 420.101515 77.605099 
L 421.89455 77.229759 
L 423.687586 77.088116 
L 425.480622 77.145009 
L 427.273657 77.365276 
L 430.859729 78.151056 
L 434.4458 79.047093 
L 436.238835 79.374154 
L 438.031871 79.532793 
L 439.824907 79.457172 
L 441.617942 79.099708 
L 445.204013 77.877695 
L 446.997049 77.255266 
L 448.790085 76.786727 
L 450.58312 76.593205 
L 452.376156 76.778115 
L 454.169191 77.28256 
L 459.548298 79.249305 
L 461.341334 79.566422 
L 463.134369 79.481758 
L 464.927405 79.022231 
L 468.513476 77.545029 
L 470.306512 76.81417 
L 472.099548 76.279684 
L 473.892583 76.078778 
L 475.685619 76.224613 
L 477.478654 76.615832 
L 482.857761 78.205253 
L 484.650797 78.523707 
L 486.443832 78.637541 
L 490.029904 78.493869 
L 493.615975 78.285753 
L 495.40901 78.318154 
L 502.581153 78.831858 
L 504.374188 78.630152 
L 506.167224 78.123271 
L 507.96026 77.291734 
L 513.339367 74.117488 
L 515.132402 73.290463 
L 516.925438 72.807694 
L 518.718473 72.750756 
L 520.511509 73.046384 
L 522.304545 73.594586 
L 529.476687 76.334497 
L 533.062758 77.13722 
L 536.648829 77.594294 
L 542.027936 77.947509 
L 547.407043 78.018331 
L 556.372221 77.760947 
L 558.165257 77.906893 
L 559.958292 78.21727 
L 561.751328 78.725229 
L 567.130435 80.623559 
L 568.92347 81.003954 
L 570.716506 81.069255 
L 572.509542 80.714923 
L 574.302577 79.961956 
L 576.095613 78.924923 
L 581.47472 75.277479 
L 583.267755 74.269874 
L 585.060791 73.50577 
L 586.853826 72.997487 
L 588.646862 72.75526 
L 590.439898 72.789323 
L 592.232933 73.10991 
L 594.025969 73.725677 
L 597.61204 75.56891 
L 599.405076 76.543044 
L 601.198111 77.380092 
L 602.991147 77.950982 
L 604.784183 78.127721 
L 606.577218 77.861865 
L 608.370254 77.23761 
L 610.163289 76.351724 
L 617.335432 72.101924 
L 619.128467 71.229423 
L 620.921503 70.484079 
L 622.714539 69.875627 
L 624.507574 69.413806 
L 626.30061 69.108352 
L 628.093645 68.969002 
L 629.886681 69.005492 
L 631.679717 69.22756 
L 633.472752 69.644942 
L 635.265788 70.267376 
L 637.058824 71.104597 
L 637.058824 71.104597 
" style="fill:none;stroke:#b22222;stroke-linecap:square;stroke-width:1.5;"/>
   </g>
   <g id="line2d_35">
    <path clip-path="url(#p1575b421a7)" d="M 100.941176 296.087907 
L 102.734212 284.066398 
L 104.527248 273.374288 
L 106.320283 263.834444 
L 108.113319 255.269735 
L 109.906355 247.503028 
L 113.492426 233.655091 
L 120.664568 207.741426 
L 122.457604 200.601032 
L 126.043675 184.837603 
L 129.629746 169.286652 
L 131.422782 162.576289 
L 133.215817 157.101729 
L 135.008853 153.211622 
L 136.801889 150.773174 
L 138.594924 149.364836 
L 140.38796 148.561141 
L 142.180995 147.936621 
L 143.974031 147.06581 
L 145.767067 145.547151 
L 147.560102 143.348704 
L 154.732245 133.010743 
L 156.52528 131.363746 
L 158.318316 130.380442 
L 160.111352 129.853112 
L 163.697423 129.292552 
L 165.490458 128.82241 
L 167.283494 127.938266 
L 169.07653 126.586458 
L 172.662601 123.144063 
L 174.455636 121.408295 
L 176.248672 119.899359 
L 178.041708 118.793281 
L 179.834743 118.145465 
L 181.627779 117.798809 
L 185.21385 117.294029 
L 187.006886 116.778433 
L 188.799921 115.849413 
L 190.592957 114.423553 
L 192.385993 112.639269 
L 197.765099 106.836242 
L 199.558135 105.318607 
L 201.351171 104.237137 
L 203.144206 103.532094 
L 204.937242 103.109683 
L 208.523313 102.737577 
L 212.109384 102.388683 
L 215.695455 101.77084 
L 222.867598 100.385414 
L 226.453669 99.903671 
L 230.03974 99.62389 
L 233.625812 99.566224 
L 237.211883 99.728718 
L 240.797954 100.079756 
L 247.970096 100.971705 
L 249.763132 100.935951 
L 251.556168 100.639881 
L 253.349203 100.003615 
L 255.142239 98.955727 
L 256.935274 97.56683 
L 260.521346 94.523463 
L 262.314381 93.25307 
L 264.107417 92.406254 
L 265.900452 92.168243 
L 267.693488 92.542548 
L 269.486524 93.335853 
L 273.072595 95.366843 
L 274.865631 96.198216 
L 276.658666 96.638615 
L 278.451702 96.613442 
L 280.244737 96.226389 
L 282.037773 95.594668 
L 287.41688 93.402955 
L 291.002951 92.464505 
L 294.589022 91.471361 
L 296.382058 90.726106 
L 298.175093 89.693555 
L 299.968129 88.348851 
L 305.347236 83.932218 
L 307.140271 82.879144 
L 308.933307 82.308947 
L 310.726343 82.320737 
L 312.519378 82.797526 
L 314.312414 83.577384 
L 317.898485 85.398587 
L 319.691521 86.116072 
L 321.484556 86.523657 
L 323.277592 86.651293 
L 325.070628 86.573318 
L 334.035806 85.601522 
L 337.621877 85.621596 
L 348.38009 85.897061 
L 353.759197 85.720497 
L 359.138304 85.225983 
L 364.517411 84.423925 
L 371.689553 83.017091 
L 380.654731 81.292183 
L 389.61991 79.733816 
L 393.205981 79.336037 
L 394.999016 79.267887 
L 396.792052 79.316486 
L 398.585088 79.492345 
L 402.171159 80.173364 
L 405.75723 81.192564 
L 414.722408 84.173376 
L 416.515444 84.586049 
L 418.308479 84.852727 
L 420.101515 84.944202 
L 421.89455 84.8568 
L 423.687586 84.592492 
L 425.480622 84.153249 
L 427.273657 83.541044 
L 429.066693 82.757846 
L 432.652764 80.802684 
L 436.238835 78.929924 
L 438.031871 78.268798 
L 439.824907 77.921497 
L 441.617942 77.962049 
L 443.410978 78.308512 
L 448.790085 79.733074 
L 450.58312 79.85254 
L 452.376156 79.574074 
L 454.169191 78.972595 
L 457.755263 77.527399 
L 459.548298 77.048613 
L 461.341334 76.975655 
L 463.134369 77.474478 
L 464.927405 78.493298 
L 470.306512 82.60123 
L 472.099548 83.625062 
L 473.892583 84.136672 
L 475.685619 84.105809 
L 477.478654 83.65921 
L 479.27169 82.929495 
L 484.650797 80.365889 
L 486.443832 79.758995 
L 488.236868 79.317804 
L 490.029904 79.024937 
L 491.822939 78.863016 
L 495.40901 78.862211 
L 500.788117 79.107302 
L 502.581153 79.003615 
L 504.374188 78.696218 
L 506.167224 78.118952 
L 509.753295 76.326785 
L 511.546331 75.440881 
L 513.339367 74.793554 
L 515.132402 74.558648 
L 516.925438 74.909877 
L 518.718473 75.921705 
L 520.511509 77.392352 
L 524.09758 80.712282 
L 525.890616 82.062652 
L 527.683651 82.874019 
L 529.476687 82.979064 
L 531.269723 82.519517 
L 533.062758 81.70978 
L 536.648829 79.897343 
L 538.441865 79.323447 
L 540.234901 79.209802 
L 542.027936 79.4824 
L 549.200079 81.416198 
L 550.993114 81.378667 
L 552.78615 81.029007 
L 556.372221 79.803612 
L 559.958292 78.561958 
L 561.751328 78.182342 
L 563.544364 77.993118 
L 567.130435 77.964577 
L 570.716506 78.030713 
L 574.302577 77.827802 
L 577.888648 77.590074 
L 579.681684 77.613604 
L 581.47472 77.815201 
L 583.267755 78.253256 
L 586.853826 79.640342 
L 588.646862 80.359818 
L 590.439898 80.941208 
L 592.232933 81.267984 
L 594.025969 81.226436 
L 595.819005 80.807373 
L 597.61204 80.1345 
L 601.198111 78.556517 
L 602.991147 77.916007 
L 604.784183 77.549851 
L 606.577218 77.513115 
L 608.370254 77.733819 
L 611.956325 78.611443 
L 615.542396 79.51068 
L 619.128467 79.961749 
L 622.714539 80.09229 
L 628.093645 80.206437 
L 631.679717 80.574309 
L 633.472752 80.934805 
L 635.265788 81.452575 
L 637.058824 82.157295 
L 637.058824 82.157295 
" style="fill:none;stroke:#7f7f7f;stroke-linecap:square;stroke-width:1.5;"/>
   </g>
   <g id="patch_3">
    <path d="M 90 320.4 
L 90 43.2 
" style="fill:none;stroke:#000000;stroke-linecap:square;stroke-linejoin:miter;stroke-width:0.8;"/>
   </g>
   <g id="patch_4">
    <path d="M 648 320.4 
L 648 43.2 
" style="fill:none;stroke:#000000;stroke-linecap:square;stroke-linejoin:miter;stroke-width:0.8;"/>
   </g>
   <g id="patch_5">
    <path d="M 90 320.4 
L 648 320.4 
" style="fill:none;stroke:#000000;stroke-linecap:square;stroke-linejoin:miter;stroke-width:0.8;"/>
   </g>
   <g id="patch_6">
    <path d="M 90 43.2 
L 648 43.2 
" style="fill:none;stroke:#000000;stroke-linecap:square;stroke-linejoin:miter;stroke-width:0.8;"/>
   </g>
   <g id="legend_1">
    <g id="patch_7">
     <path d="M 523.824375 315.4 
L 641 315.4 
Q 643 315.4 643 313.4 
L 643 231.33125 
Q 643 229.33125 641 229.33125 
L 523.824375 229.33125 
Q 521.824375 229.33125 521.824375 231.33125 
L 521.824375 313.4 
Q 521.824375 315.4 523.824375 315.4 
z
" style="fill:#ffffff;opacity:0.8;stroke:#cccccc;stroke-linejoin:miter;"/>
    </g>
    <g id="line2d_36">
     <path d="M 525.824375 238.949375 
L 545.824375 238.949375 
" style="fill:none;stroke:#ff8c00;stroke-linecap:square;stroke-width:1.5;"/>
    </g>
    <g id="line2d_37"/>
    <g id="text_18">
     <!-- dropout=0 -->
     <g transform="translate(553.824375 242.449375)scale(0.12 -0.12)">
      <defs>
       <path d="M 45.609375 46.6875 
L 45.609375 75.984375 
L 63.1875 75.984375 
L 63.1875 0 
L 45.609375 0 
L 45.609375 7.90625 
Q 42 3.078125 37.640625 0.828125 
Q 33.296875 -1.421875 27.59375 -1.421875 
Q 17.484375 -1.421875 10.984375 6.609375 
Q 4.5 14.65625 4.5 27.296875 
Q 4.5 39.9375 10.984375 47.96875 
Q 17.484375 56 27.59375 56 
Q 33.25 56 37.625 53.734375 
Q 42 51.46875 45.609375 46.6875 
z
M 34.078125 11.28125 
Q 39.703125 11.28125 42.65625 15.375 
Q 45.609375 19.484375 45.609375 27.296875 
Q 45.609375 35.109375 42.65625 39.203125 
Q 39.703125 43.3125 34.078125 43.3125 
Q 28.515625 43.3125 25.5625 39.203125 
Q 22.609375 35.109375 22.609375 27.296875 
Q 22.609375 19.484375 25.5625 15.375 
Q 28.515625 11.28125 34.078125 11.28125 
z
" id="DejaVuSans-Bold-100"/>
       <path d="M 25.875 7.90625 
L 25.875 -20.796875 
L 8.40625 -20.796875 
L 8.40625 54.6875 
L 25.875 54.6875 
L 25.875 46.6875 
Q 29.5 51.46875 33.890625 53.734375 
Q 38.28125 56 44 56 
Q 54.109375 56 60.59375 47.96875 
Q 67.09375 39.9375 67.09375 27.296875 
Q 67.09375 14.65625 60.59375 6.609375 
Q 54.109375 -1.421875 44 -1.421875 
Q 38.28125 -1.421875 33.890625 0.84375 
Q 29.5 3.125 25.875 7.90625 
z
M 37.5 43.3125 
Q 31.890625 43.3125 28.875 39.1875 
Q 25.875 35.0625 25.875 27.296875 
Q 25.875 19.53125 28.875 15.40625 
Q 31.890625 11.28125 37.5 11.28125 
Q 43.109375 11.28125 46.0625 15.375 
Q 49.03125 19.484375 49.03125 27.296875 
Q 49.03125 35.109375 46.0625 39.203125 
Q 43.109375 43.3125 37.5 43.3125 
z
" id="DejaVuSans-Bold-112"/>
       <path d="M 7.8125 21.296875 
L 7.8125 54.6875 
L 25.390625 54.6875 
L 25.390625 49.21875 
Q 25.390625 44.78125 25.34375 38.0625 
Q 25.296875 31.34375 25.296875 29.109375 
Q 25.296875 22.515625 25.640625 19.609375 
Q 25.984375 16.703125 26.8125 15.375 
Q 27.875 13.671875 29.609375 12.734375 
Q 31.34375 11.8125 33.59375 11.8125 
Q 39.0625 11.8125 42.1875 16.015625 
Q 45.3125 20.21875 45.3125 27.6875 
L 45.3125 54.6875 
L 62.796875 54.6875 
L 62.796875 0 
L 45.3125 0 
L 45.3125 7.90625 
Q 41.359375 3.125 36.9375 0.84375 
Q 32.515625 -1.421875 27.203125 -1.421875 
Q 17.71875 -1.421875 12.765625 4.390625 
Q 7.8125 10.203125 7.8125 21.296875 
z
" id="DejaVuSans-Bold-117"/>
       <path d="M 10.59375 48.1875 
L 73.1875 48.1875 
L 73.1875 36.71875 
L 10.59375 36.71875 
z
M 10.59375 25.984375 
L 73.1875 25.984375 
L 73.1875 14.40625 
L 10.59375 14.40625 
z
" id="DejaVuSans-Bold-61"/>
      </defs>
      <use xlink:href="#DejaVuSans-Bold-100"/>
      <use x="71.582031" xlink:href="#DejaVuSans-Bold-114"/>
      <use x="120.898438" xlink:href="#DejaVuSans-Bold-111"/>
      <use x="189.599609" xlink:href="#DejaVuSans-Bold-112"/>
      <use x="261.181641" xlink:href="#DejaVuSans-Bold-111"/>
      <use x="329.882812" xlink:href="#DejaVuSans-Bold-117"/>
      <use x="401.074219" xlink:href="#DejaVuSans-Bold-116"/>
      <use x="448.876953" xlink:href="#DejaVuSans-Bold-61"/>
      <use x="532.666016" xlink:href="#DejaVuSans-Bold-48"/>
     </g>
    </g>
    <g id="line2d_38">
     <path d="M 525.824375 255.563125 
L 545.824375 255.563125 
" style="fill:none;stroke:#228b22;stroke-linecap:square;stroke-width:1.5;"/>
    </g>
    <g id="line2d_39"/>
    <g id="text_19">
     <!-- dropout=0.2 -->
     <g transform="translate(553.824375 259.063125)scale(0.12 -0.12)">
      <use xlink:href="#DejaVuSans-Bold-100"/>
      <use x="71.582031" xlink:href="#DejaVuSans-Bold-114"/>
      <use x="120.898438" xlink:href="#DejaVuSans-Bold-111"/>
      <use x="189.599609" xlink:href="#DejaVuSans-Bold-112"/>
      <use x="261.181641" xlink:href="#DejaVuSans-Bold-111"/>
      <use x="329.882812" xlink:href="#DejaVuSans-Bold-117"/>
      <use x="401.074219" xlink:href="#DejaVuSans-Bold-116"/>
      <use x="448.876953" xlink:href="#DejaVuSans-Bold-61"/>
      <use x="532.666016" xlink:href="#DejaVuSans-Bold-48"/>
      <use x="602.246094" xlink:href="#DejaVuSans-Bold-46"/>
      <use x="640.234375" xlink:href="#DejaVuSans-Bold-50"/>
     </g>
    </g>
    <g id="line2d_40">
     <path d="M 525.824375 272.176875 
L 545.824375 272.176875 
" style="fill:none;stroke:#1f77b4;stroke-linecap:square;stroke-width:1.5;"/>
    </g>
    <g id="line2d_41"/>
    <g id="text_20">
     <!-- dropout=0.4 -->
     <g transform="translate(553.824375 275.676875)scale(0.12 -0.12)">
      <use xlink:href="#DejaVuSans-Bold-100"/>
      <use x="71.582031" xlink:href="#DejaVuSans-Bold-114"/>
      <use x="120.898438" xlink:href="#DejaVuSans-Bold-111"/>
      <use x="189.599609" xlink:href="#DejaVuSans-Bold-112"/>
      <use x="261.181641" xlink:href="#DejaVuSans-Bold-111"/>
      <use x="329.882812" xlink:href="#DejaVuSans-Bold-117"/>
      <use x="401.074219" xlink:href="#DejaVuSans-Bold-116"/>
      <use x="448.876953" xlink:href="#DejaVuSans-Bold-61"/>
      <use x="532.666016" xlink:href="#DejaVuSans-Bold-48"/>
      <use x="602.246094" xlink:href="#DejaVuSans-Bold-46"/>
      <use x="640.234375" xlink:href="#DejaVuSans-Bold-52"/>
     </g>
    </g>
    <g id="line2d_42">
     <path d="M 525.824375 288.790625 
L 545.824375 288.790625 
" style="fill:none;stroke:#b22222;stroke-linecap:square;stroke-width:1.5;"/>
    </g>
    <g id="line2d_43"/>
    <g id="text_21">
     <!-- dropout=0.6 -->
     <g transform="translate(553.824375 292.290625)scale(0.12 -0.12)">
      <defs>
       <path d="M 36.1875 35.984375 
Q 31.25 35.984375 28.78125 32.78125 
Q 26.3125 29.59375 26.3125 23.1875 
Q 26.3125 16.796875 28.78125 13.59375 
Q 31.25 10.40625 36.1875 10.40625 
Q 41.15625 10.40625 43.625 13.59375 
Q 46.09375 16.796875 46.09375 23.1875 
Q 46.09375 29.59375 43.625 32.78125 
Q 41.15625 35.984375 36.1875 35.984375 
z
M 59.421875 71 
L 59.421875 57.515625 
Q 54.78125 59.71875 50.671875 60.765625 
Q 46.578125 61.8125 42.671875 61.8125 
Q 34.28125 61.8125 29.59375 57.140625 
Q 24.90625 52.484375 24.125 43.3125 
Q 27.34375 45.703125 31.09375 46.890625 
Q 34.859375 48.09375 39.3125 48.09375 
Q 50.484375 48.09375 57.34375 41.546875 
Q 64.203125 35.015625 64.203125 24.421875 
Q 64.203125 12.703125 56.53125 5.640625 
Q 48.875 -1.421875 35.984375 -1.421875 
Q 21.78125 -1.421875 13.984375 8.171875 
Q 6.203125 17.78125 6.203125 35.40625 
Q 6.203125 53.46875 15.3125 63.796875 
Q 24.421875 74.125 40.28125 74.125 
Q 45.3125 74.125 50.046875 73.34375 
Q 54.78125 72.5625 59.421875 71 
z
" id="DejaVuSans-Bold-54"/>
      </defs>
      <use xlink:href="#DejaVuSans-Bold-100"/>
      <use x="71.582031" xlink:href="#DejaVuSans-Bold-114"/>
      <use x="120.898438" xlink:href="#DejaVuSans-Bold-111"/>
      <use x="189.599609" xlink:href="#DejaVuSans-Bold-112"/>
      <use x="261.181641" xlink:href="#DejaVuSans-Bold-111"/>
      <use x="329.882812" xlink:href="#DejaVuSans-Bold-117"/>
      <use x="401.074219" xlink:href="#DejaVuSans-Bold-116"/>
      <use x="448.876953" xlink:href="#DejaVuSans-Bold-61"/>
      <use x="532.666016" xlink:href="#DejaVuSans-Bold-48"/>
      <use x="602.246094" xlink:href="#DejaVuSans-Bold-46"/>
      <use x="640.234375" xlink:href="#DejaVuSans-Bold-54"/>
     </g>
    </g>
    <g id="line2d_44">
     <path d="M 525.824375 305.404375 
L 545.824375 305.404375 
" style="fill:none;stroke:#7f7f7f;stroke-linecap:square;stroke-width:1.5;"/>
    </g>
    <g id="line2d_45"/>
    <g id="text_22">
     <!-- dropout=0.8 -->
     <g transform="translate(553.824375 308.904375)scale(0.12 -0.12)">
      <defs>
       <path d="M 34.8125 32.625 
Q 29.546875 32.625 26.703125 29.734375 
Q 23.875 26.859375 23.875 21.484375 
Q 23.875 16.109375 26.703125 13.25 
Q 29.546875 10.40625 34.8125 10.40625 
Q 40.046875 10.40625 42.828125 13.25 
Q 45.609375 16.109375 45.609375 21.484375 
Q 45.609375 26.90625 42.828125 29.765625 
Q 40.046875 32.625 34.8125 32.625 
z
M 21.09375 38.8125 
Q 14.453125 40.828125 11.078125 44.96875 
Q 7.71875 49.125 7.71875 55.328125 
Q 7.71875 64.546875 14.59375 69.375 
Q 21.484375 74.21875 34.8125 74.21875 
Q 48.046875 74.21875 54.921875 69.40625 
Q 61.8125 64.59375 61.8125 55.328125 
Q 61.8125 49.125 58.421875 44.96875 
Q 55.03125 40.828125 48.390625 38.8125 
Q 55.8125 36.765625 59.59375 32.15625 
Q 63.375 27.546875 63.375 20.515625 
Q 63.375 9.671875 56.171875 4.125 
Q 48.96875 -1.421875 34.8125 -1.421875 
Q 20.609375 -1.421875 13.359375 4.125 
Q 6.109375 9.671875 6.109375 20.515625 
Q 6.109375 27.546875 9.890625 32.15625 
Q 13.671875 36.765625 21.09375 38.8125 
z
M 25.484375 53.421875 
Q 25.484375 49.078125 27.90625 46.734375 
Q 30.328125 44.390625 34.8125 44.390625 
Q 39.203125 44.390625 41.59375 46.734375 
Q 44 49.078125 44 53.421875 
Q 44 57.765625 41.59375 60.078125 
Q 39.203125 62.40625 34.8125 62.40625 
Q 30.328125 62.40625 27.90625 60.0625 
Q 25.484375 57.71875 25.484375 53.421875 
z
" id="DejaVuSans-Bold-56"/>
      </defs>
      <use xlink:href="#DejaVuSans-Bold-100"/>
      <use x="71.582031" xlink:href="#DejaVuSans-Bold-114"/>
      <use x="120.898438" xlink:href="#DejaVuSans-Bold-111"/>
      <use x="189.599609" xlink:href="#DejaVuSans-Bold-112"/>
      <use x="261.181641" xlink:href="#DejaVuSans-Bold-111"/>
      <use x="329.882812" xlink:href="#DejaVuSans-Bold-117"/>
      <use x="401.074219" xlink:href="#DejaVuSans-Bold-116"/>
      <use x="448.876953" xlink:href="#DejaVuSans-Bold-61"/>
      <use x="532.666016" xlink:href="#DejaVuSans-Bold-48"/>
      <use x="602.246094" xlink:href="#DejaVuSans-Bold-46"/>
      <use x="640.234375" xlink:href="#DejaVuSans-Bold-56"/>
     </g>
    </g>
   </g>
  </g>
 </g>
 <defs>
  <clipPath id="p1575b421a7">
   <rect height="277.2" width="558" x="90" y="43.2"/>
  </clipPath>
 </defs>
</svg>
